<?xml version="1.0" encoding="UTF-8"?>
<svg version="1.1" xmlns="http://www.w3.org/2000/svg" width="500" height="500">
<path d="M0 0 C0.05607422 1.79630859 0.05607422 1.79630859 0.11328125 3.62890625 C0.9181133 24.99774836 4.18417757 40.72955076 20 56 C26.26756459 61.63131182 32.09853201 66.07173774 40 69 C42.35585289 69.93350325 44.70982705 70.87106827 47.0625 71.8125 C47.70082764 72.06612305 48.33915527 72.31974609 48.99682617 72.58105469 C68.91686523 80.52243463 89.32389185 89.24650875 106 103 C107.26670249 103.94307391 108.53730736 104.88093822 109.8125 105.8125 C115.89114317 110.36286426 121.30634337 115.01154154 126 121 C126.825 121.639375 127.65 122.27875 128.5 122.9375 C131.38428076 125.31703163 132.96177428 127.87896686 135 131 C135.825 131.825 136.65 132.65 137.5 133.5 C160.26969519 156.26969519 168.16361144 195.21551133 168.375 226.0625 C168.06094064 263.96175144 155.08612879 300.31414624 133.125 331.0625 C132.70935791 331.64612305 132.29371582 332.22974609 131.86547852 332.83105469 C128.44234121 337.55574789 124.71762451 341.8603775 120.71484375 346.109375 C118.93987267 347.8955419 118.93987267 347.8955419 118 350 C117.34 350 116.68 350 116 350 C116 350.66 116 351.32 116 352 C114.56226745 353.2371187 113.11814319 354.46789484 111.63671875 355.65234375 C109.81771097 357.10596645 109.81771097 357.10596645 107.625 359.375 C106.75875 360.24125 105.8925 361.1075 105 362 C104.51917969 362.48984375 104.03835938 362.9796875 103.54296875 363.484375 C95.64653592 370.97083502 80.11201303 383 69 383 C69.59293907 378.59907444 70.7339361 374.86757852 72.375 370.75 C81.57449935 345.33804962 79.54926317 317.9645023 70 293 C69.56945312 291.85144531 69.13890625 290.70289063 68.6953125 289.51953125 C65.34958354 281.15520885 60.98220654 273.82712037 56.07421875 266.30078125 C54 263 54 263 53 260 C52.34 260 51.68 260 51 260 C47 254.58823529 47 254.58823529 47 252 C46.443125 251.79375 45.88625 251.5875 45.3125 251.375 C42.75504973 249.85435389 41.37544612 248.0253327 39.55078125 245.71484375 C37.09412659 242.99829112 34.20333759 240.90250319 31.28125 238.7109375 C29.72060596 237.54045447 28.18867293 236.330963 26.68359375 235.08984375 C2.93023003 216.59195497 -25.98184999 206.99731243 -55.56591797 203.33789062 C-58.06965164 202.99033121 -60.52665062 202.51907757 -63 202 C-61.63590485 198.71786243 -60.40671868 197.33928225 -57.3125 195.625 C-53.63225518 193.47316287 -50.57277611 191.02416771 -47.4453125 188.13671875 C-46 187 -46 187 -44 187 C-44 186.34 -44 185.68 -44 185 C-42.3563186 183.31066078 -40.6857124 181.64740076 -39 180 C-23.31493577 161.45153662 -19.40916741 138.65308649 -21 115 C-21.62907257 109.24666237 -22.5458347 103.52980325 -23.4375 97.8125 C-25.81909249 82.50681546 -27.04359951 67.52142481 -27 52 C-27.00386719 50.85917969 -27.00386719 50.85917969 -27.0078125 49.6953125 C-26.96154783 37.80529355 -23.51050195 25.98276966 -17 16 C-16.46375 15.030625 -15.9275 14.06125 -15.375 13.0625 C-14.694375 12.0415625 -14.694375 12.0415625 -14 11 C-13.34 11 -12.68 11 -12 11 C-11.72929687 10.41734375 -11.45859375 9.8346875 -11.1796875 9.234375 C-10.00293725 7.00556327 -8.72659854 5.1918345 -7.125 3.25 C-6.63257813 2.63640625 -6.14015625 2.0228125 -5.6328125 1.390625 C-4 0 -4 0 0 0 Z " fill="#AE189B" transform="translate(239,54)"/>
<path d="M0 0 C2.6305247 2.6305247 2.56742873 4.4711572 3.1875 8.125 C6.28627739 23.05408514 12.94705844 34.653078 23 46 C23.69222656 46.79277344 24.38445312 47.58554688 25.09765625 48.40234375 C39.68962893 64.01305785 61.75618904 71.32132377 82.18786621 75.00656128 C117.38213355 81.39347138 149.28238661 92.15595873 171.17211914 122.46264648 C176.81715158 130.71508923 180.71681922 139.58531603 184 149 C184.34933594 149.99128906 184.69867188 150.98257813 185.05859375 152.00390625 C193.07780979 178.97763293 186.27654478 206.83942738 173.703125 231.0234375 C167.99264706 241.00367647 167.99264706 241.00367647 164 243 C139.04812617 244.6029041 114.63453131 242.18354603 91 234 C90.2997168 233.76941895 89.59943359 233.53883789 88.87792969 233.30126953 C66.72969139 226.00855692 47.67065438 213.08939028 31 197 C29.72189453 195.81664062 29.72189453 195.81664062 28.41796875 194.609375 C6.93707509 174.17715489 -7.31014877 145.58234638 -14 117 C-14.17644043 116.2894043 -14.35288086 115.57880859 -14.53466797 114.84667969 C-23.07610449 79.44500723 -16.25136624 34.96701588 -2 2 C-1.34 1.34 -0.68 0.68 0 0 Z " fill="#AA18A3" transform="translate(110,204)"/>
<path d="M0 0 C0.05607422 1.79630859 0.05607422 1.79630859 0.11328125 3.62890625 C0.9181133 24.99774836 4.18417757 40.72955076 20 56 C26.26756459 61.63131182 32.09853201 66.07173774 40 69 C42.35585289 69.93350325 44.70982705 70.87106827 47.0625 71.8125 C47.70082764 72.06612305 48.33915527 72.31974609 48.99682617 72.58105469 C68.91333942 80.52102902 89.33161563 89.24152002 106 103 C107.4324693 104.08997664 108.86956668 105.17391413 110.3125 106.25 C111.35857422 107.03117187 111.35857422 107.03117187 112.42578125 107.828125 C112.94527344 108.21484375 113.46476563 108.6015625 114 109 C110.58678765 109 109.60527115 108.33132534 106.8125 106.5 C106.09707031 106.0359375 105.38164062 105.571875 104.64453125 105.09375 C104.10183594 104.7328125 103.55914062 104.371875 103 104 C103 104.66 103 105.32 103 106 C101.041036 105.69147815 99.08284287 105.3780582 97.125 105.0625 C96.03445313 104.88847656 94.94390625 104.71445313 93.8203125 104.53515625 C91 104 91 104 89 103 C89.33 102.01 89.66 101.02 90 100 C90.66 100 91.32 100 92 100 C92 99.01 92 98.02 92 97 C91.38125 96.855625 90.7625 96.71125 90.125 96.5625 C88 96 88 96 86 95 C86 94.34 86 93.68 86 93 C85.01 93 84.02 93 83 93 C83 92.34 83 91.68 83 91 C81.783125 90.87625 80.56625 90.7525 79.3125 90.625 C75.93520941 90.21108694 73.10243305 89.45426549 70 88 C70 87.01 70 86.02 70 85 C67.525 85.99 67.525 85.99 65 87 C64.67 85.68 64.34 84.36 64 83 C60.37093951 82.18346139 57.39463399 81.99053189 53.75 82.5625 C51.89375 82.7790625 51.89375 82.7790625 50 83 C49.34 82.34 48.68 81.68 48 81 C48.99 79.515 48.99 79.515 50 78 C47.07422062 75.07422062 44.21663843 75.57340823 40.21484375 75.34375 C39.11849609 75.17359375 39.11849609 75.17359375 38 75 C37.67 74.34 37.34 73.68 37 73 C33.535 73.495 33.535 73.495 30 74 C30 73.01 30 72.02 30 71 C28.35 70.67 26.7 70.34 25 70 C25 69.01 25 68.02 25 67 C23.2984375 66.443125 23.2984375 66.443125 21.5625 65.875 C19.625 65.06640625 19.625 65.06640625 18 64 C17.0625 60.8125 17.0625 60.8125 17 58 C14.69 57.67 12.38 57.34 10 57 C10 56.34 10 55.68 10 55 C8.515 55.495 8.515 55.495 7 56 C7 54.02 7 52.04 7 50 C5.02 49.505 5.02 49.505 3 49 C3 48.34 3 47.68 3 47 C3.66 47 4.32 47 5 47 C4.01 44.525 4.01 44.525 3 42 C2.34 42 1.68 42 1 42 C0.505 42.99 0.505 42.99 0 44 C-0.33 39.38 -0.66 34.76 -1 30 C-1.99 29.67 -2.98 29.34 -4 29 C-4 28.01 -4 27.02 -4 26 C-3.34 26 -2.68 26 -2 26 C-2.99 20.72 -3.98 15.44 -5 10 C-5.99 10.99 -6.98 11.98 -8 13 C-8 14.32 -8 15.64 -8 17 C-8.78375 17.28875 -9.5675 17.5775 -10.375 17.875 C-13.09671632 18.84912254 -13.09671632 18.84912254 -15 21 C-15 21.804375 -15 22.60875 -15 23.4375 C-15 26 -15 26 -17 29 C-16.69159401 31.15274948 -16.69159401 31.15274948 -16 33 C-16.99 33.33 -17.98 33.66 -19 34 C-20.16830035 36.66500695 -20.16830035 36.66500695 -21 40 C-21.34417969 41.19109375 -21.68835938 42.3821875 -22.04296875 43.609375 C-23.21029293 48.32030393 -23.30269066 52.85348186 -23.25 57.6875 C-23.24311157 58.99545532 -23.24311157 58.99545532 -23.23608398 60.32983398 C-23.12437071 68.35025498 -22.55239584 76.34281249 -20 84 C-20.4375 86.1875 -20.4375 86.1875 -21 88 C-20.01 88 -19.02 88 -18 88 C-16.23858648 93.47995318 -15.87463636 96.58775348 -17.546875 102.0546875 C-18.42867796 105.84035881 -17.40330351 109.48006705 -16.42578125 113.1640625 C-15.8399655 117.06591784 -16.18749093 120.76783842 -16.5 124.6875 C-17.20250598 129.98763651 -17.20250598 129.98763651 -16 135 C-16.33 135.66 -16.66 136.32 -17 137 C-16.01 137.99 -16.01 137.99 -15 139 C-15.4640625 140.11375 -15.4640625 140.11375 -15.9375 141.25 C-16.81268795 143.51519234 -17.45044621 145.64476948 -18 148 C-18.33 148.99 -18.66 149.98 -19 151 C-19.70731074 153.4755876 -20.10488566 155.80911798 -20.4375 158.375 C-20.96665043 161.78508053 -21.86706385 164.75224971 -23 168 C-23 168.66 -23 169.32 -23 170 C-24.47704212 171.25227484 -25.95827399 172.50166522 -27.4921875 173.68359375 C-29.26762944 175.11764091 -29.26762944 175.11764091 -31 178 C-31 178.99 -31 179.98 -31 181 C-31.62599617 182.68236471 -32.28752268 184.3523962 -33 186 C-34.98 186 -36.96 186 -39 186 C-39 187.98 -39 189.96 -39 192 C-39.763125 192.2475 -40.52625 192.495 -41.3125 192.75 C-44.26080945 194.12130672 -45.35834532 195.2351079 -47 198 C-47 198.66 -47 199.32 -47 200 C-44.36 200.33 -41.72 200.66 -39 201 C-39.33 201.66 -39.66 202.32 -40 203 C-38.35 203.33 -36.7 203.66 -35 204 C-35 204.66 -35 205.32 -35 206 C-39.10477797 205.5259773 -43.20869928 205.04490413 -47.3125 204.5625 C-49.06336914 204.36043945 -49.06336914 204.36043945 -50.84960938 204.15429688 C-51.96787109 204.02216797 -53.08613281 203.89003906 -54.23828125 203.75390625 C-55.26993408 203.63345947 -56.30158691 203.5130127 -57.36450195 203.38891602 C-60 203 -60 203 -63 202 C-61.63590485 198.71786243 -60.40671868 197.33928225 -57.3125 195.625 C-53.63225518 193.47316287 -50.57277611 191.02416771 -47.4453125 188.13671875 C-46 187 -46 187 -44 187 C-44 186.34 -44 185.68 -44 185 C-42.3563186 183.31066078 -40.6857124 181.64740076 -39 180 C-23.31493577 161.45153662 -19.40916741 138.65308649 -21 115 C-21.62907257 109.24666237 -22.5458347 103.52980325 -23.4375 97.8125 C-25.81909249 82.50681546 -27.04359951 67.52142481 -27 52 C-27.00386719 50.85917969 -27.00386719 50.85917969 -27.0078125 49.6953125 C-26.96154783 37.80529355 -23.51050195 25.98276966 -17 16 C-16.46375 15.030625 -15.9275 14.06125 -15.375 13.0625 C-14.694375 12.0415625 -14.694375 12.0415625 -14 11 C-13.34 11 -12.68 11 -12 11 C-11.72929687 10.41734375 -11.45859375 9.8346875 -11.1796875 9.234375 C-10.00293725 7.00556327 -8.72659854 5.1918345 -7.125 3.25 C-6.63257813 2.63640625 -6.14015625 2.0228125 -5.6328125 1.390625 C-4 0 -4 0 0 0 Z M30 69 C31 71 31 71 31 71 Z " fill="#AF7FF1" transform="translate(239,54)"/>
<path d="M0 0 C2.6305247 2.6305247 2.56742873 4.4711572 3.1875 8.125 C6.28627739 23.05408514 12.94705844 34.653078 23 46 C23.69222656 46.79277344 24.38445312 47.58554688 25.09765625 48.40234375 C39.30126053 63.59757543 61.22864705 71.32848235 81.1875 74.75 C83.0447168 75.08064453 83.0447168 75.08064453 84.93945312 75.41796875 C87.95820124 75.95411706 90.97821948 76.48126688 94 77 C94 77.33 94 77.66 94 78 C89.05 78 84.1 78 79 78 C79 77.34 79 76.68 79 76 C77.39884424 75.7506643 75.79379841 75.52621352 74.1875 75.3125 C73.29417969 75.18488281 72.40085937 75.05726563 71.48046875 74.92578125 C68.38420869 75.01842525 68.08637375 75.88565878 66 78 C63.84375 77.92578125 63.84375 77.92578125 61.5 77.3125 C60.7265625 77.12300781 59.953125 76.93351562 59.15625 76.73828125 C57 76 57 76 54 74 C53.67 73.01 53.34 72.02 53 71 C50.68191636 69.96514123 48.34824702 68.9644586 46 68 C45.67 67.34 45.34 66.68 45 66 C44.34 66 43.68 66 43 66 C43 66.66 43 67.32 43 68 C40 67 40 67 38.8125 64.9375 C38.544375 64.298125 38.27625 63.65875 38 63 C37.01 63 36.02 63 35 63 C34.67 62.01 34.34 61.02 34 60 C31.69 59.67 29.38 59.34 27 59 C26.7525 57.576875 26.7525 57.576875 26.5 56.125 C25.37777898 52.91873588 25.37777898 52.91873588 23.0859375 52.15625 C21.07815136 51.67381375 19.03858716 51.32880438 17 51 C17.33 50.01 17.66 49.02 18 48 C17.34 48 16.68 48 16 48 C16 46.68 16 45.36 16 44 C15.34 44 14.68 44 14 44 C14 45.65 14 47.3 14 49 C13.01 49.495 13.01 49.495 12 50 C11.95101562 49.37351563 11.90203125 48.74703125 11.8515625 48.1015625 C11.77679688 47.28429687 11.70203125 46.46703125 11.625 45.625 C11.55539063 44.81289062 11.48578125 44.00078125 11.4140625 43.1640625 C10.78300264 39.86588171 8.36198753 38.42946796 5.875 36.375 C4.92625 35.59125 3.9775 34.8075 3 34 C3.66 32.02 4.32 30.04 5 28 C4.01 28.33 3.02 28.66 2 29 C2 28.34 2 27.68 2 27 C1.34 27 0.68 27 0 27 C-0.33 26.01 -0.66 25.02 -1 24 C-1.33 24.99 -1.66 25.98 -2 27 C-4.0625 27.6875 -4.0625 27.6875 -6 28 C-6.144375 28.9075 -6.28875 29.815 -6.4375 30.75 C-6.86525752 33.22148792 -7.37484649 35.57753014 -8 38 C-8.61222332 40.78901734 -9 43.13304555 -9 46 C-9.1042558 47.66809278 -9.2312811 49.33484305 -9.375 51 C-9.44460937 51.86625 -9.51421875 52.7325 -9.5859375 53.625 C-10 56 -10 56 -12 59 C-10.515 58.505 -10.515 58.505 -9 58 C-9.30798326 59.48011371 -9.621518 60.95907325 -9.9375 62.4375 C-10.11152344 63.26121094 -10.28554687 64.08492188 -10.46484375 64.93359375 C-11 67 -11 67 -12 68 C-14.27006237 84.82548556 -14.27006237 84.82548556 -11 101 C-11.020625 102.134375 -11.04125 103.26875 -11.0625 104.4375 C-11.318863 108.10672687 -11.318863 108.10672687 -9 111 C-9 111.99 -9 112.98 -9 114 C-8.69922675 116.005155 -8.3564309 118.00398694 -8 120 C-7.87753906 120.90105469 -7.75507812 121.80210937 -7.62890625 122.73046875 C-7.48324219 123.70628906 -7.33757812 124.68210937 -7.1875 125.6875 C-6.99220703 127.08548828 -6.99220703 127.08548828 -6.79296875 128.51171875 C-5.83323337 131.52330218 -4.65764023 132.38816546 -2 134 C-2.33 135.98 -2.66 137.96 -3 140 C-1.68 140.33 -0.36 140.66 1 141 C1.68707555 143.49064888 2 145.37886292 2 148 C3.32 148.33 4.64 148.66 6 149 C6.103125 149.598125 6.20625 150.19625 6.3125 150.8125 C6.8279009 153.06591338 6.8279009 153.06591338 8.5 154.4375 C10.46573078 156.48513623 10.62668561 158.23747349 11 161 C11.66 161 12.32 161 13 161 C13.33 161.99 13.66 162.98 14 164 C14.66 164.33 15.32 164.66 16 165 C16.33333333 167.33333333 16.66666667 169.66666667 17 172 C17.66 172.33 18.32 172.66 19 173 C19.33333333 175.33333333 19.66666667 177.66666667 20 180 C20.66 180.33 21.32 180.66 22 181 C22.433125 181.9075 22.86625 182.815 23.3125 183.75 C25.38835509 187.74794313 27.91038877 190.95519438 32 193 C31.67 194.32 31.34 195.64 31 197 C8.20724209 175.98715377 -6.98651473 146.96507075 -14 117 C-14.17644043 116.2894043 -14.35288086 115.57880859 -14.53466797 114.84667969 C-23.07610449 79.44500723 -16.25136624 34.96701588 -2 2 C-1.34 1.34 -0.68 0.68 0 0 Z " fill="#7323F5" transform="translate(110,204)"/>
<path d="M0 0 C0.99 0 1.98 0 3 0 C-1.79566061 17.90379962 -14.32478718 34.07197014 -26.6953125 47.51953125 C-28.21487602 49.17718895 -28.21487602 49.17718895 -30 52 C-30.66 52 -31.32 52 -32 52 C-32 52.66 -32 53.32 -32 54 C-33.43773255 55.2371187 -34.88185681 56.46789484 -36.36328125 57.65234375 C-38.18228903 59.10596645 -38.18228903 59.10596645 -40.375 61.375 C-41.24125 62.24125 -42.1075 63.1075 -43 64 C-43.48082031 64.48984375 -43.96164062 64.9796875 -44.45703125 65.484375 C-52.35346408 72.97083502 -67.88798697 85 -79 85 C-78.40706093 80.59907444 -77.2660639 76.86757852 -75.625 72.75 C-68.47274462 52.99319021 -68.82961025 32.5226122 -72 12 C-64.16526227 19.83473773 -66.83180709 39.00010574 -66.80371094 49.18652344 C-66.84607821 55.6122262 -67.22206108 61.57135994 -68.7578125 67.828125 C-69.05490917 70.49241128 -68.39055424 71.75451242 -67 74 C-64.37886292 74 -62.49064888 73.68707555 -60 73 C-59.5359375 71.329375 -59.5359375 71.329375 -59.0625 69.625 C-58 66 -58 66 -57 64 C-55.35 64 -53.7 64 -52 64 C-52 63.34 -52 62.68 -52 62 C-51.34 62 -50.68 62 -50 62 C-50 61.34 -50 60.68 -50 60 C-49.01 60 -48.02 60 -47 60 C-47.33 59.01 -47.66 58.02 -48 57 C-46.33333333 55.33333333 -44.66666667 53.66666667 -43 52 C-42.484375 51.401875 -41.96875 50.80375 -41.4375 50.1875 C-38.9950999 48.16986514 -36.03759384 49 -33 49 C-33 46.36 -33 43.72 -33 41 C-31.68 41 -30.36 41 -29 41 C-28.67 41.66 -28.34 42.32 -28 43 C-27.67 41.35 -27.34 39.7 -27 38 C-27.66 38 -28.32 38 -29 38 C-28.67 36.68 -28.34 35.36 -28 34 C-25.33333333 33.33333333 -22.66666667 32.66666667 -20 32 C-19.67 29.69 -19.34 27.38 -19 25 C-18.2575 25.020625 -17.515 25.04125 -16.75 25.0625 C-13.89444753 24.28701733 -13.89444753 24.28701733 -12.84765625 22.03515625 C-12.16491749 20.44553431 -11.51293266 18.84230066 -10.89453125 17.2265625 C-10 15 -10 15 -8 12 C-7.34 12 -6.68 12 -6 12 C-6 11.34 -6 10.68 -6 10 C-5.34 10 -4.68 10 -4 10 C-4 9.34 -4 8.68 -4 8 C-3.34 8 -2.68 8 -2 8 C-2 7.34 -2 6.68 -2 6 C-1.34 6 -0.68 6 0 6 C-0.185625 5.195625 -0.37125 4.39125 -0.5625 3.5625 C-0.7790625 2.2940625 -0.7790625 2.2940625 -1 1 C-0.67 0.67 -0.34 0.34 0 0 Z " fill="#D43E5E" transform="translate(387,352)"/>
<path d="M0 0 C0.33 0 0.66 0 1 0 C2.07843779 15.52180099 2.07843779 15.52180099 1.9375 21.1875 C1.84297263 28.13526181 2.80149657 35.40448972 5 42 C4.5625 44.1875 4.5625 44.1875 4 46 C4.99 46 5.98 46 7 46 C8.76141352 51.47995318 9.12536364 54.58775348 7.453125 60.0546875 C6.57132204 63.84035881 7.59669649 67.48006705 8.57421875 71.1640625 C9.1600345 75.06591784 8.81250907 78.76783842 8.5 82.6875 C7.79749402 87.98763651 7.79749402 87.98763651 9 93 C8.67 93.66 8.34 94.32 8 95 C8.99 95.99 8.99 95.99 10 97 C9.5359375 98.11375 9.5359375 98.11375 9.0625 99.25 C8.18731205 101.51519234 7.54955379 103.64476948 7 106 C6.505 107.485 6.505 107.485 6 109 C5.29268926 111.4755876 4.89511434 113.80911798 4.5625 116.375 C4.03334957 119.78508053 3.13293615 122.75224971 2 126 C2 126.66 2 127.32 2 128 C0.52295788 129.25227484 -0.95827399 130.50166522 -2.4921875 131.68359375 C-4.26762944 133.11764091 -4.26762944 133.11764091 -6 136 C-6 136.99 -6 137.98 -6 139 C-6.62599617 140.68236471 -7.28752268 142.3523962 -8 144 C-9.98 144 -11.96 144 -14 144 C-14 145.98 -14 147.96 -14 150 C-14.763125 150.2475 -15.52625 150.495 -16.3125 150.75 C-19.26080945 152.12130672 -20.35834532 153.2351079 -22 156 C-22 156.66 -22 157.32 -22 158 C-19.36 158.33 -16.72 158.66 -14 159 C-14.33 159.66 -14.66 160.32 -15 161 C-13.35 161.33 -11.7 161.66 -10 162 C-10 162.66 -10 163.32 -10 164 C-14.10477797 163.5259773 -18.20869928 163.04490413 -22.3125 162.5625 C-24.06336914 162.36043945 -24.06336914 162.36043945 -25.84960938 162.15429688 C-26.96787109 162.02216797 -28.08613281 161.89003906 -29.23828125 161.75390625 C-30.26993408 161.63345947 -31.30158691 161.5130127 -32.36450195 161.38891602 C-35 161 -35 161 -38 160 C-36.63590485 156.71786243 -35.40671868 155.33928225 -32.3125 153.625 C-28.63225518 151.47316287 -25.57277611 149.02416771 -22.4453125 146.13671875 C-21 145 -21 145 -19 145 C-19 144.34 -19 143.68 -19 143 C-17.3563186 141.31066078 -15.6857124 139.64740076 -14 138 C3.33899244 117.49567426 5.61037767 92.59946351 3.54696655 66.77780151 C2.35198062 52.13545614 2.35198062 52.13545614 0.45898438 37.57788086 C-0.04371148 33.65925973 -0.12640728 29.82048948 -0.09765625 25.87890625 C-0.0962413 25.13414536 -0.09482635 24.38938446 -0.09336853 23.62205505 C-0.08781989 21.26882727 -0.07527733 18.9156985 -0.0625 16.5625 C-0.05747835 14.95638159 -0.05291661 13.35026168 -0.04882812 11.74414062 C-0.03786735 7.82938957 -0.02063884 3.91471151 0 0 Z " fill="#9F4BC9" transform="translate(214,96)"/>
<path d="M0 0 C0.33 0 0.66 0 1 0 C1.1698931 2.81233755 1.33598232 5.62481849 1.5 8.4375 C1.54769531 9.22060547 1.59539062 10.00371094 1.64453125 10.81054688 C1.91720823 15.54344015 2.0394751 20.24218392 1.97485352 24.98291016 C2.02235112 28.79286368 2.28518141 32.57036282 4 36 C3.979375 37.134375 3.95875 38.26875 3.9375 39.4375 C3.681137 43.10672687 3.681137 43.10672687 6 46 C6 46.99 6 47.98 6 49 C6.30077325 51.005155 6.6435691 53.00398694 7 55 C7.18369141 56.35158203 7.18369141 56.35158203 7.37109375 57.73046875 C7.51675781 58.70628906 7.66242188 59.68210937 7.8125 60.6875 C8.00779297 62.08548828 8.00779297 62.08548828 8.20703125 63.51171875 C9.16676663 66.52330218 10.34235977 67.38816546 13 69 C12.67 70.98 12.34 72.96 12 75 C13.32 75.33 14.64 75.66 16 76 C16.68707555 78.49064888 17 80.37886292 17 83 C18.32 83.33 19.64 83.66 21 84 C21.103125 84.598125 21.20625 85.19625 21.3125 85.8125 C21.8279009 88.06591338 21.8279009 88.06591338 23.5 89.4375 C25.46573078 91.48513623 25.62668561 93.23747349 26 96 C26.66 96 27.32 96 28 96 C28.33 96.99 28.66 97.98 29 99 C29.66 99.33 30.32 99.66 31 100 C31.33333333 102.33333333 31.66666667 104.66666667 32 107 C32.99 107.495 32.99 107.495 34 108 C34.33333333 110.33333333 34.66666667 112.66666667 35 115 C35.99 115.495 35.99 115.495 37 116 C37.433125 116.9075 37.86625 117.815 38.3125 118.75 C40.38835509 122.74794313 42.91038877 125.95519438 47 128 C46.67 129.32 46.34 130.64 46 132 C21.23370725 109.16773445 1.38629541 73.56216306 -0.5625 39.5625 C-0.6042334 38.83748291 -0.6459668 38.11246582 -0.68896484 37.36547852 C-1.01335825 31.05701975 -1.10745364 24.7536568 -1.125 18.4375 C-1.12959229 17.52234619 -1.13418457 16.60719238 -1.13891602 15.66430664 C-1.12676461 10.35219607 -0.77282269 5.25642096 0 0 Z " fill="#8A25C3" transform="translate(95,269)"/>
<path d="M0 0 C0.99 0 1.98 0 3 0 C3 1.32 3 2.64 3 4 C3.66 4 4.32 4 5 4 C11.87271481 24.61814442 4.98531257 53.2615677 -4 72 C-10.60464443 84.76878214 -10.60464443 84.76878214 -16 88 C-18.97338867 88.35644531 -18.97338867 88.35644531 -22.41796875 88.328125 C-23.67287109 88.32296875 -24.92777344 88.3178125 -26.22070312 88.3125 C-27.52974609 88.291875 -28.83878906 88.27125 -30.1875 88.25 C-31.47720703 88.24484375 -32.76691406 88.2396875 -34.09570312 88.234375 C-52.91952441 88.08047559 -52.91952441 88.08047559 -55 86 C-57.32817964 85.63239269 -59.6618385 85.29758419 -62 85 C-62 84.01 -62 83.02 -62 82 C-58.46126303 81.92922526 -55.18316823 81.96889596 -51.6875 82.5625 C-49.03806674 83.26283158 -49.03806674 83.26283158 -47 82 C-44.875 82.9375 -44.875 82.9375 -43 84 C-43 84.33 -43 84.66 -43 85 C-38.52572076 85.08948558 -34.39436211 84.85743651 -30 84 C-30 84.33 -30 84.66 -30 85 C-26.37 85 -22.74 85 -19 85 C-18.01 81.04 -17.02 77.08 -16 73 C-13.69 73.33 -11.38 73.66 -9 74 C-4.56676942 65.46192629 -1.59559814 56.82458215 -0.45703125 47.265625 C-0.30621094 46.51796875 -0.15539062 45.7703125 0 45 C0.66 44.67 1.32 44.34 2 44 C1.67 43.01 1.34 42.02 1 41 C0.01 41.495 0.01 41.495 -1 42 C-0.67 40.68 -0.34 39.36 0 38 C0.66 38 1.32 38 2 38 C1.773125 37.2575 1.54625 36.515 1.3125 35.75 C1 33 1 33 2.47265625 31.1484375 C4.36404383 28.48791789 4.28826254 27.09223243 4.125 23.875 C3.91553134 19.16893733 3.91553134 19.16893733 5 17 C3.515 16.505 3.515 16.505 2 16 C1.87625 15.05125 1.7525 14.1025 1.625 13.125 C1.28312823 9.91332809 1.28312823 9.91332809 -1 8 C-0.96712417 5.27130593 -0.43602229 2.7033382 0 0 Z " fill="#BD4371" transform="translate(290,359)"/>
<path d="M0 0 C2.45136048 1.17665303 4.7743118 2.45547753 7.12109375 3.8359375 C11.12978298 6.13227306 15.271299 8.02293369 19.5 9.875 C20.28681152 10.22304687 21.07362305 10.57109375 21.88427734 10.9296875 C26.75774531 13.06901901 31.66425931 15.07257846 36.625 17 C47.94194065 21.47861907 58.61020931 27.07387741 69.125 33.1875 C69.82351074 33.59129883 70.52202148 33.99509766 71.24169922 34.41113281 C75.52837943 36.95054182 79.23272168 39.74066932 83 43 C84.44868488 44.11679553 85.90559364 45.22311252 87.375 46.3125 C88.06335938 46.82425781 88.75171875 47.33601563 89.4609375 47.86328125 C89.96882813 48.23839844 90.47671875 48.61351562 91 49 C87.58678765 49 86.60527115 48.33132534 83.8125 46.5 C83.09707031 46.0359375 82.38164062 45.571875 81.64453125 45.09375 C81.10183594 44.7328125 80.55914062 44.371875 80 44 C80 44.66 80 45.32 80 46 C78.041036 45.69147815 76.08284287 45.3780582 74.125 45.0625 C73.03445313 44.88847656 71.94390625 44.71445313 70.8203125 44.53515625 C68 44 68 44 66 43 C66.33 42.01 66.66 41.02 67 40 C67.66 40 68.32 40 69 40 C69 39.01 69 38.02 69 37 C68.38125 36.855625 67.7625 36.71125 67.125 36.5625 C65 36 65 36 63 35 C63 34.34 63 33.68 63 33 C62.01 33 61.02 33 60 33 C60 32.34 60 31.68 60 31 C58.1746875 30.814375 58.1746875 30.814375 56.3125 30.625 C52.93520941 30.21108694 50.10243305 29.45426549 47 28 C47 27.01 47 26.02 47 25 C45.35 25.66 43.7 26.32 42 27 C41.505 25.02 41.505 25.02 41 23 C37.37093951 22.18346139 34.39463399 21.99053189 30.75 22.5625 C29.5125 22.706875 28.275 22.85125 27 23 C26.34 22.34 25.68 21.68 25 21 C25.66 20.01 26.32 19.02 27 18 C24.07422062 15.07422062 21.21663843 15.57340823 17.21484375 15.34375 C16.48394531 15.2303125 15.75304687 15.116875 15 15 C14.67 14.34 14.34 13.68 14 13 C11.69 13.33 9.38 13.66 7 14 C6.67 11.03 6.34 8.06 6 5 C5.01 5 4.02 5 3 5 C3 4.34 3 3.68 3 3 C2.01 2.67 1.02 2.34 0 2 C0 1.34 0 0.68 0 0 Z M3 6 C5.51083114 7.25541557 5.87125446 8.50063488 7 11 C5.35 10.67 3.7 10.34 2 10 C2.33 8.68 2.66 7.36 3 6 Z " fill="#9436B6" transform="translate(262,114)"/>
<path d="M0 0 C7.83473773 7.83473773 5.16819291 27.00010574 5.19628906 37.18652344 C5.15392179 43.6122262 4.77793892 49.57135994 3.2421875 55.828125 C2.94509083 58.49241128 3.60944576 59.75451242 5 62 C7.66420516 62 9.52260646 61.90837763 12 61 C12.33 60.01 12.66 59.02 13 58 C19.625 57 19.625 57 23 57 C17.43311632 61.1046147 11.71990507 64.88818094 5.75 68.375 C5.17233887 68.72046875 4.59467773 69.0659375 3.99951172 69.421875 C0.34651598 71.51708334 -2.81718513 72.55636812 -7 73 C-6.40706093 68.59907444 -5.2660639 64.86757852 -3.625 60.75 C3.52725538 40.99319021 3.17038975 20.5226122 0 0 Z " fill="#CE2B54" transform="translate(315,364)"/>
<path d="M0 0 C13.52308448 20.28462672 11.08858408 56.57808365 7 79.265625 C5.45655246 86.9635696 3.29274408 94.49647391 1 102 C0.01 101.34 -0.98 100.68 -2 100 C-2.1875 96.875 -2.1875 96.875 -2 94 C-1.01 93.505 -1.01 93.505 0 93 C0.6161065 90.74998736 0.6161065 90.74998736 1 88.125 C1.5722779 84.61979783 1.98046184 83.02930724 4 80 C6.06559442 73.80321673 6.08499489 68.19913753 5.75 61.75 C5.71156982 60.96939209 5.67313965 60.18878418 5.63354492 59.38452148 C5.36043661 55.21906106 4.85962722 51.81071152 3 48 C3.66 47.34 4.32 46.68 5 46 C5.28257791 40.5368271 4.73338444 35.40871024 4 30 C4 29.01 4 28.02 4 27 C3.34 26.34 2.68 25.68 2 25 C1.85482256 22.0906442 1.81369204 19.280054 1.875 16.375 C1.88402344 15.57320312 1.89304687 14.77140625 1.90234375 13.9453125 C1.92593777 11.96341477 1.96180935 9.98167019 2 8 C1.34 8 0.68 8 0 8 C0 5.36 0 2.72 0 0 Z " fill="#D16091" transform="translate(398,229)"/>
<path d="M0 0 C2.125 0.375 2.125 0.375 4 1 C4.103125 1.598125 4.20625 2.19625 4.3125 2.8125 C4.8279009 5.06591338 4.8279009 5.06591338 6.5 6.4375 C8.46573078 8.48513623 8.62668561 10.23747349 9 13 C9.66 13 10.32 13 11 13 C11.33 13.99 11.66 14.98 12 16 C12.66 16.33 13.32 16.66 14 17 C14.33333333 19.33333333 14.66666667 21.66666667 15 24 C15.66 24.33 16.32 24.66 17 25 C17.33333333 27.33333333 17.66666667 29.66666667 18 32 C18.66 32.33 19.32 32.66 20 33 C20.433125 33.9075 20.86625 34.815 21.3125 35.75 C23.38835509 39.74794313 25.91038877 42.95519438 30 45 C29.67 46.32 29.34 47.64 29 49 C18.30665082 39.14170629 -0.80245711 19.57420031 -2.25 4.375 C-2 2 -2 2 0 0 Z " fill="#9C1BBD" transform="translate(112,352)"/>
<path d="M0 0 C0.43828125 0.3403125 0.8765625 0.680625 1.328125 1.03125 C3.53215131 2.71562783 5.76294658 4.35972682 8 6 C8.83660156 6.62648438 9.67320312 7.25296875 10.53515625 7.8984375 C28.12572511 20.41718271 48.01825491 24.61584757 69 28 C69 28.33 69 28.66 69 29 C64.05 29 59.1 29 54 29 C54 28.34 54 27.68 54 27 C52.39884424 26.7506643 50.79379841 26.52621352 49.1875 26.3125 C48.29417969 26.18488281 47.40085938 26.05726563 46.48046875 25.92578125 C43.38420869 26.01842525 43.08637375 26.88565878 41 29 C38.84375 28.92578125 38.84375 28.92578125 36.5 28.3125 C35.33984375 28.02826172 35.33984375 28.02826172 34.15625 27.73828125 C32 27 32 27 29 25 C28.67 24.01 28.34 23.02 28 22 C25.68191636 20.96514123 23.34824702 19.9644586 21 19 C20.67 18.34 20.34 17.68 20 17 C19.34 17 18.68 17 18 17 C18 17.66 18 18.32 18 19 C15 18 15 18 13.8125 15.9375 C13.4103125 14.9784375 13.4103125 14.9784375 13 14 C12.01 14 11.02 14 10 14 C9.67 13.01 9.34 12.02 9 11 C6.69 10.67 4.38 10.34 2 10 C0.68373308 6.38026598 0 3.90432869 0 0 Z " fill="#8C20BD" transform="translate(135,253)"/>
<path d="M0 0 C0.66 0.33 1.32 0.66 2 1 C1.61328125 1.42410156 1.2265625 1.84820312 0.828125 2.28515625 C-2.75357722 6.31900405 -5.4841139 10.22849188 -8 15 C-8.5775 16.03125 -9.155 17.0625 -9.75 18.125 C-11.03855787 21.08868311 -11.08561672 22.8321812 -11 26 C-11.66 26.99 -12.32 27.98 -13 29 C-12.69159401 31.15274948 -12.69159401 31.15274948 -12 33 C-13.485 33.495 -13.485 33.495 -15 34 C-16.86137535 38.48919936 -17.86142647 43.28305253 -19 48 C-19.33 48 -19.66 48 -20 48 C-20.40371105 68.46911853 -20.40371105 68.46911853 -18.4375 88.80078125 C-17.96777466 92.23564783 -17.92978349 95.53744858 -18 99 C-18.33 99 -18.66 99 -19 99 C-24.14761822 72.71153463 -28.44163553 39.67717447 -13 16 C-12.46375 15.030625 -11.9275 14.06125 -11.375 13.0625 C-10.92125 12.381875 -10.4675 11.70125 -10 11 C-9.34 11 -8.68 11 -8 11 C-7.73445312 10.41734375 -7.46890625 9.8346875 -7.1953125 9.234375 C-5.96697004 6.93825772 -4.59685061 5.19643982 -2.875 3.25 C-2.33617187 2.63640625 -1.79734375 2.0228125 -1.2421875 1.390625 C-0.83226562 0.93171875 -0.42234375 0.4728125 0 0 Z " fill="#B087EE" transform="translate(235,54)"/>
<path d="M0 0 C3.75962506 1.25320835 4.09477595 2.87322306 5.90625 6.21484375 C7.53729119 8.87693598 9.35935109 10.36531258 12 12 C15.18762109 12.79690838 15.18762109 12.79690838 18 13 C17.98839844 13.69867188 17.97679687 14.39734375 17.96484375 15.1171875 C17.95582031 16.02726562 17.94679688 16.93734375 17.9375 17.875 C17.92589844 18.77992188 17.91429687 19.68484375 17.90234375 20.6171875 C17.83750743 23.0168585 17.83750743 23.0168585 19 25 C19.66 24.67 20.32 24.34 21 24 C21.98397585 26.5607445 22.96229967 29.12341492 23.9375 31.6875 C24.35418945 32.7693457 24.35418945 32.7693457 24.77929688 33.87304688 C26.18252964 37.57555261 27.30958005 41.08762029 28 45 C28.99083967 47.23408113 28.99083967 47.23408113 30 49 C29.34 49 28.68 49 28 49 C28 50.65 28 52.3 28 54 C26.26892295 51.40338443 25.27303242 49.33860014 24.1875 46.45703125 C19.98857344 35.59589843 15.46037769 25.70105532 8.96875 16.01953125 C7 13 7 13 6 10 C5.34 10 4.68 10 4 10 C0 4.58823529 0 4.58823529 0 2 C-0.66 1.67 -1.32 1.34 -2 1 C-1.34 0.67 -0.68 0.34 0 0 Z " fill="#BB2C84" transform="translate(286,304)"/>
<path d="M0 0 C1.28616796 2.424642 2.33104244 4.83967033 3.33984375 7.3984375 C7.7131318 18.42285481 13.5749372 27.5749372 22 36 C22 37.32 22 38.64 22 40 C18.28400809 40.20086443 17.22791555 40.1519437 14 38 C14.33 37.34 14.66 36.68 15 36 C14.34 36 13.68 36 13 36 C13 34.68 13 33.36 13 32 C12.34 32 11.68 32 11 32 C11 33.65 11 35.3 11 37 C10.01 37.495 10.01 37.495 9 38 C8.95101562 37.37351563 8.90203125 36.74703125 8.8515625 36.1015625 C8.77679688 35.28429687 8.70203125 34.46703125 8.625 33.625 C8.55539063 32.81289062 8.48578125 32.00078125 8.4140625 31.1640625 C7.74645374 27.67486201 5.70232778 26.79571514 2.8125 24.8125 C1.884375 23.884375 0.95625 22.95625 0 22 C0.25 18.6875 0.25 18.6875 1 15 C0.63852991 12.99669297 0.63852991 12.99669297 0 11 C-1.18113066 6.96840734 -0.85213495 4.09024775 0 0 Z " fill="#863EE7" transform="translate(113,216)"/>
<path d="M0 0 C0.33 0 0.66 0 1 0 C1.05390357 2.93774463 1.0936255 5.87450232 1.125 8.8125 C1.14175781 9.64587891 1.15851563 10.47925781 1.17578125 11.33789062 C1.18222656 12.14033203 1.18867187 12.94277344 1.1953125 13.76953125 C1.20578613 14.50792236 1.21625977 15.24631348 1.22705078 16.00708008 C1 18 1 18 -1 21 C-0.70630173 22.34262065 -0.3721042 23.67696283 0 25 C-0.33 25.99 -0.66 26.98 -1 28 C-1.5232321 30.38361292 -2 32.55777249 -2 35 C-1.01 34.505 -1.01 34.505 0 34 C-0.30798326 35.48011371 -0.621518 36.95907325 -0.9375 38.4375 C-1.11152344 39.26121094 -1.28554687 40.08492188 -1.46484375 40.93359375 C-2 43 -2 43 -3 44 C-3.23192865 45.51469448 -3.41215238 47.03754562 -3.5625 48.5625 C-3.64628906 49.38878906 -3.73007813 50.21507812 -3.81640625 51.06640625 C-3.87699219 51.70449219 -3.93757813 52.34257812 -4 53 C-4.66 51.68 -5.32 50.36 -6 49 C-6 59.89 -6 70.78 -6 82 C-6.33 82 -6.66 82 -7 82 C-8.17016101 74.63255842 -8.2436675 67.38076557 -8.25 59.9375 C-8.25067474 59.22580658 -8.25134949 58.51411316 -8.25204468 57.78085327 C-8.22211392 37.82990431 -4.98655328 19.27608342 0 0 Z " fill="#CAA3F0" transform="translate(101,228)"/>
<path d="M0 0 C0.33 0 0.66 0 1 0 C2.07843779 15.52180099 2.07843779 15.52180099 1.9375 21.1875 C1.84297263 28.13526181 2.80149657 35.40448972 5 42 C4.5625 44.1875 4.5625 44.1875 4 46 C4.99 46 5.98 46 7 46 C8.76141352 51.47995318 9.12536364 54.58775348 7.453125 60.0546875 C6.57132204 63.84035881 7.59669649 67.48006705 8.57421875 71.1640625 C9.1600345 75.06591784 8.81250907 78.76783842 8.5 82.6875 C7.79749402 87.98763651 7.79749402 87.98763651 9 93 C8.01 93.99 7.02 94.98 6 96 C5.98582031 94.70835937 5.97164062 93.41671875 5.95703125 92.0859375 C5.68979668 79.89072679 4.55021059 68.09245626 2.78997803 56.0411377 C0.04845362 37.24875933 -0.59772832 18.96913803 0 0 Z " fill="#7428CB" transform="translate(214,96)"/>
<path d="M0 0 C0.99 0 1.98 0 3 0 C3 1.32 3 2.64 3 4 C3.66 4 4.32 4 5 4 C6.83543016 9.50629049 6.19366391 15.4852071 6.1875 21.25 C6.1882251 21.92863098 6.1889502 22.60726196 6.18969727 23.30645752 C6.18854488 33.00806675 5.87452976 42.45998248 4 52 C3.34 52 2.68 52 2 52 C1.34 54.31 0.68 56.62 0 59 C-0.66 59 -1.32 59 -2 59 C-1.71935082 56.68613705 -1.42518311 54.37390992 -1.125 52.0625 C-0.96257812 50.77472656 -0.80015625 49.48695313 -0.6328125 48.16015625 C-0.31957031 46.59587891 -0.31957031 46.59587891 0 45 C0.99 44.505 0.99 44.505 2 44 C1.505 42.515 1.505 42.515 1 41 C0.01 41.495 0.01 41.495 -1 42 C-0.67 40.68 -0.34 39.36 0 38 C0.66 38 1.32 38 2 38 C1.773125 37.2575 1.54625 36.515 1.3125 35.75 C1 33 1 33 2.47265625 31.1484375 C4.36404383 28.48791789 4.28826254 27.09223243 4.125 23.875 C3.91553134 19.16893733 3.91553134 19.16893733 5 17 C4.01 16.67 3.02 16.34 2 16 C1.814375 14.576875 1.814375 14.576875 1.625 13.125 C1.28312823 9.91332809 1.28312823 9.91332809 -1 8 C-0.96712417 5.27130593 -0.43602229 2.7033382 0 0 Z " fill="#B51D63" transform="translate(290,359)"/>
<path d="M0 0 C2.4375 0.8125 2.4375 0.8125 5 2 C5.33 2.99 5.66 3.98 6 5 C5.01 5.33 4.02 5.66 3 6 C3 6.845625 3 7.69125 3 8.5625 C1.51520737 13.66647468 -1.70315482 16.04638276 -6 19 C-8.7568496 20.50012357 -10.8990032 21.2247508 -14 22 C-16.5 21.1875 -16.5 21.1875 -18 20 C-17.34 18.35 -16.68 16.7 -16 15 C-14.35 15 -12.7 15 -11 15 C-11 14.34 -11 13.68 -11 13 C-10.34 13 -9.68 13 -9 13 C-9 12.34 -9 11.68 -9 11 C-8.01 11 -7.02 11 -6 11 C-6.33 10.01 -6.66 9.02 -7 8 C-6.21625 7.236875 -5.4325 6.47375 -4.625 5.6875 C-1.92742283 3.09108195 -1.92742283 3.09108195 0 0 Z " fill="#DA153E" transform="translate(346,401)"/>
<path d="M0 0 C1.32 0 2.64 0 4 0 C3.25 2.9375 3.25 2.9375 2 6 C0.125 6.625 0.125 6.625 -2 7 C-4.22977996 8.97901574 -4.22977996 8.97901574 -6 11 C-5.67 11.99 -5.34 12.98 -5 14 C-5.66 14 -6.32 14 -7 14 C-7 14.66 -7 15.32 -7 16 C-3.04 16 0.92 16 5 16 C4.67 16.66 4.34 17.32 4 18 C5.65 18.33 7.3 18.66 9 19 C9 19.66 9 20.32 9 21 C4.89522203 20.5259773 0.79130072 20.04490413 -3.3125 19.5625 C-4.47974609 19.42779297 -5.64699219 19.29308594 -6.84960938 19.15429688 C-7.96787109 19.02216797 -9.08613281 18.89003906 -10.23828125 18.75390625 C-11.7857605 18.57323608 -11.7857605 18.57323608 -13.36450195 18.38891602 C-16 18 -16 18 -19 17 C-17.63590485 13.71786243 -16.40671868 12.33928225 -13.3125 10.625 C-9.63225518 8.47316287 -6.57277611 6.02416771 -3.4453125 3.13671875 C-2 2 -2 2 0 2 C0 1.34 0 0.68 0 0 Z " fill="#AC67CF" transform="translate(195,239)"/>
<path d="M0 0 C4.75024162 0.55404348 8.32345232 2.71830401 12.3125 5.1875 C13.31543091 5.79924072 13.31543091 5.79924072 14.33862305 6.42333984 C18.41101204 8.93529925 22.32600763 11.55855888 26.0859375 14.5234375 C29.28468403 16.99104196 32.65291921 19.21816203 35.99609375 21.484375 C38 23 38 23 39 25 C35.22272911 23.18690997 31.62730178 21.0926741 28 19 C28 19.66 28 20.32 28 21 C26.041036 20.69147815 24.08284287 20.3780582 22.125 20.0625 C21.03445313 19.88847656 19.94390625 19.71445313 18.8203125 19.53515625 C16 19 16 19 14 18 C14.33 17.01 14.66 16.02 15 15 C15.66 15 16.32 15 17 15 C17 14.01 17 13.02 17 12 C16.38125 11.855625 15.7625 11.71125 15.125 11.5625 C13 11 13 11 11 10 C11 9.34 11 8.68 11 8 C10.01 8 9.02 8 8 8 C8 7.34 8 6.68 8 6 C7.34 6 6.68 6 6 6 C6 5.01 6 4.02 6 3 C4.02 2.34 2.04 1.68 0 1 C0 0.67 0 0.34 0 0 Z " fill="#9423A8" transform="translate(314,139)"/>
<path d="M0 0 C7.29996782 7.29996782 5.13153892 24.49243094 5.1875 34 C5.14728067 53.41551047 5.14728067 53.41551047 3 58 C0.46875 59.15625 0.46875 59.15625 -2 60 C-2.88693303 62.04105639 -2.88693303 62.04105639 -3 64 C-4.53766975 60.9246605 -3.20218188 58.91081806 -2.1875 55.6875 C3.32012675 37.19050053 2.92018717 18.90299732 0 0 Z " fill="#E08EA9" transform="translate(315,364)"/>
<path d="M0 0 C0.66 0 1.32 0 2 0 C2 0.66 2 1.32 2 2 C2.70125 2.020625 3.4025 2.04125 4.125 2.0625 C7.84696918 3.2761856 9.13234566 5.21616157 11.51171875 8.22265625 C13.08369318 10.21888578 13.08369318 10.21888578 15.8125 12.25 C18 14 18 14 19 17 C19.66 17.33 20.32 17.66 21 18 C21 18.66 21 19.32 21 20 C21.99 20 22.98 20 24 20 C24.33 21.32 24.66 22.64 25 24 C23.29351419 23.26386886 21.58772028 22.52606045 19.88671875 21.77734375 C17.86688912 20.90280753 17.86688912 20.90280753 15.125 20.1875 C14.42375 19.795625 13.7225 19.40375 13 19 C12.1875 15.875 12.1875 15.875 12 13 C9.69 12.67 7.38 12.34 5 12 C5 11.34 5 10.68 5 10 C4.01 10.33 3.02 10.66 2 11 C2 9.02 2 7.04 2 5 C0.68 4.67 -0.64 4.34 -2 4 C-2 3.34 -2 2.68 -2 2 C-1.34 2 -0.68 2 0 2 C0 1.34 0 0.68 0 0 Z " fill="#7D22E3" transform="translate(244,99)"/>
<path d="M0 0 C11.25227623 13.49631992 9.5299784 37.04936457 8.29101562 53.46875 C7.83884403 57.40173249 6.95234725 61.1593865 6 65 C5.67 65 5.34 65 5 65 C5.0714624 64.33387695 5.1429248 63.66775391 5.21655273 62.98144531 C6.0921377 53.88759692 6.1150709 44.87353017 6.0625 35.75 C6.05747043 34.21484522 6.05291012 32.67968884 6.04882812 31.14453125 C6.03794839 27.4296533 6.02076577 23.71483741 6 20 C5.34 20 4.68 20 4 20 C4 18.68 4 17.36 4 16 C3.34 16 2.68 16 2 16 C-1.00974609 10.98375652 -1.37937519 7.69062784 -1 2 C-0.67 1.34 -0.34 0.68 0 0 Z " fill="#D681AE" transform="translate(289,343)"/>
<path d="M0 0 C2.4335493 1.16810366 4.73639838 2.43582761 7.0625 3.8125 C11.37811739 6.28757555 15.87990604 8.26684066 20.4375 10.25 C21.26443359 10.61351563 22.09136719 10.97703125 22.94335938 11.3515625 C24.96076052 12.23781965 26.97962585 13.12054678 29 14 C25.61373221 15.83391031 23.67236038 16.18330781 19.8125 15.75 C18.93207031 15.66234375 18.05164063 15.5746875 17.14453125 15.484375 C16.43683594 15.32453125 15.72914063 15.1646875 15 15 C14.67 14.34 14.34 13.68 14 13 C11.69 13.33 9.38 13.66 7 14 C6.67 11.03 6.34 8.06 6 5 C5.01 5 4.02 5 3 5 C3 4.34 3 3.68 3 3 C2.01 2.67 1.02 2.34 0 2 C0 1.34 0 0.68 0 0 Z M3 6 C5.51083114 7.25541557 5.87125446 8.50063488 7 11 C5.35 10.67 3.7 10.34 2 10 C2.33 8.68 2.66 7.36 3 6 Z " fill="#A15BD8" transform="translate(262,114)"/>
<path d="M0 0 C11.26130617 4.60244687 18.6492302 25.17605484 24.06640625 35.57421875 C25 38 25 38 24 41 C21 36.25 21 36.25 21 34 C20.34 34 19.68 34 19 34 C18.01 32.02 17.02 30.04 16 28 C15.34 28.33 14.68 28.66 14 29 C13.34 28.67 12.68 28.34 12 28 C11.82119617 26.08885087 11.73196417 24.16898013 11.6875 22.25 C11.35927799 17.16494007 11.35927799 17.16494007 8.625 12.875 C6.77225419 11.55161013 4.8944504 10.26296693 3 9 C2.05078125 6.8359375 2.05078125 6.8359375 1.3125 4.375 C1.06113281 3.55773437 0.80976563 2.74046875 0.55078125 1.8984375 C0.36902344 1.27195313 0.18726563 0.64546875 0 0 Z " fill="#C151A1" transform="translate(372,184)"/>
<path d="M0 0 C2.96865509 2.54456151 4.3619751 5.48994665 6 9 C6.66 9 7.32 9 8 9 C8.103125 9.639375 8.20625 10.27875 8.3125 10.9375 C8.539375 11.618125 8.76625 12.29875 9 13 C9.99 13.33 10.98 13.66 12 14 C12.28875 14.7425 12.5775 15.485 12.875 16.25 C14.26948344 19.6587373 16.38372601 21.45080995 19 24 C19.33 24.99 19.66 25.98 20 27 C20.66 27.33 21.32 27.66 22 28 C22.433125 28.9075 22.86625 29.815 23.3125 30.75 C25.38835509 34.74794313 27.91038877 37.95519438 32 40 C31.67 41.32 31.34 42.64 31 44 C18.55666981 32.52838323 4.91773368 16.4658446 0 0 Z " fill="#BE74C2" transform="translate(110,357)"/>
<path d="M0 0 C0.33 0 0.66 0 1 0 C1.1698931 2.81233755 1.33598232 5.62481849 1.5 8.4375 C1.54769531 9.22060547 1.59539062 10.00371094 1.64453125 10.81054688 C1.91720823 15.54344015 2.0394751 20.24218392 1.97485352 24.98291016 C2.02235112 28.79286368 2.28518141 32.57036282 4 36 C3.979375 37.134375 3.95875 38.26875 3.9375 39.4375 C3.681137 43.10672687 3.681137 43.10672687 6 46 C5.125 48.6875 5.125 48.6875 4 51 C3.34 51 2.68 51 2 51 C-0.40692152 40.22727356 -1.08681065 29.8292173 -1.125 18.8125 C-1.12967285 17.87374023 -1.1343457 16.93498047 -1.13916016 15.96777344 C-1.12671003 10.55292746 -0.79320019 5.35724891 0 0 Z " fill="#7D2DC9" transform="translate(95,269)"/>
<path d="M0 0 C0.33 0 0.66 0 1 0 C1.33 9.24 1.66 18.48 2 28 C1.34 28 0.68 28 0 28 C-0.99 22.06 -1.98 16.12 -3 10 C-3.99 10.99 -4.98 11.98 -6 13 C-6 14.32 -6 15.64 -6 17 C-7.175625 17.4640625 -7.175625 17.4640625 -8.375 17.9375 C-10.92330128 18.92875038 -10.92330128 18.92875038 -13 20 C-10.14150859 12.13914862 -5.85899546 5.92050723 0 0 Z " fill="#6F38D1" transform="translate(237,54)"/>
<path d="M0 0 C0.928125 0.2784375 0.928125 0.2784375 1.875 0.5625 C4.04160178 1.23686176 4.04160178 1.23686176 6 0 C6.98397585 2.5607445 7.96229967 5.12341492 8.9375 7.6875 C9.21529297 8.40873047 9.49308594 9.12996094 9.77929688 9.87304688 C11.18252964 13.57555261 12.30958005 17.08762029 13 21 C13.99083967 23.23408113 13.99083967 23.23408113 15 25 C14.34 25 13.68 25 13 25 C13 26.65 13 28.3 13 30 C11.22103158 27.33154738 10.100847 25.02144579 8.90625 22.0703125 C8.51566406 21.10996094 8.12507813 20.14960938 7.72265625 19.16015625 C7.31917969 18.15855469 6.91570312 17.15695312 6.5 16.125 C6.09652344 15.13113281 5.69304687 14.13726562 5.27734375 13.11328125 C3.50626025 8.74694667 1.74824621 4.37552632 0 0 Z " fill="#C14B8A" transform="translate(301,328)"/>
<path d="M0 0 C0 0.66 0 1.32 0 2 C1.01320312 1.97679687 2.02640625 1.95359375 3.0703125 1.9296875 C4.42186758 1.9109159 5.77343069 1.8927172 7.125 1.875 C7.79015625 1.85824219 8.4553125 1.84148437 9.140625 1.82421875 C13.49516056 1.78152722 16.95600114 2.40003783 21 4 C20.67 4.99 20.34 5.98 20 7 C12 7 12 7 9 6 C9 6.66 9 7.32 9 8 C7.35 7.34 5.7 6.68 4 6 C4 5.34 4 4.68 4 4 C3.39671875 3.95101563 2.7934375 3.90203125 2.171875 3.8515625 C0.97304687 3.73941406 0.97304687 3.73941406 -0.25 3.625 C-1.03890625 3.55539062 -1.8278125 3.48578125 -2.640625 3.4140625 C-5.085877 2.98492887 -6.84836903 2.21399362 -9 1 C-5.64919071 -1.10976881 -3.77897651 -1.0497157 0 0 Z M-4 3 C-3.01 3.99 -2.02 4.98 -1 6 C-2.98 6.99 -2.98 6.99 -5 8 C-4.67 6.35 -4.34 4.7 -4 3 Z " fill="#8F23AA" transform="translate(189,280)"/>
<path d="M0 0 C0.99 0 1.98 0 3 0 C1.30741628 6.31897922 -1.32742258 11.7532192 -4.5 17.4375 C-5.08769165 18.50291016 -5.08769165 18.50291016 -5.68725586 19.58984375 C-6.06889893 20.26015625 -6.45054199 20.93046875 -6.84375 21.62109375 C-7.18599609 22.2236499 -7.52824219 22.82620605 -7.88085938 23.44702148 C-9 25 -9 25 -12 27 C-13.52858994 21.90470018 -12.51196822 19.15963923 -10.203125 14.63671875 C-9 13 -9 13 -6 12 C-6 11.34 -6 10.68 -6 10 C-5.34 10 -4.68 10 -4 10 C-4 9.34 -4 8.68 -4 8 C-3.34 8 -2.68 8 -2 8 C-2 7.34 -2 6.68 -2 6 C-1.34 6 -0.68 6 0 6 C-0.2784375 4.7934375 -0.2784375 4.7934375 -0.5625 3.5625 C-0.706875 2.716875 -0.85125 1.87125 -1 1 C-0.67 0.67 -0.34 0.34 0 0 Z " fill="#D34E6B" transform="translate(387,352)"/>
<path d="M0 0 C3.16115776 1.36983503 3.9927092 1.9890638 6 5 C8.97503122 6.15835673 8.97503122 6.15835673 12 7 C12.66 7.33 13.32 7.66 14 8 C14 8.66 14 9.32 14 10 C14.66 10.33 15.32 10.66 16 11 C16 11.33 16 11.66 16 12 C18.97 12.99 21.94 13.98 25 15 C25 15.66 25 16.32 25 17 C26.65 17 28.3 17 30 17 C30.33 17.99 30.66 18.98 31 20 C32.65 20.33 34.3 20.66 36 21 C36 21.99 36 22.98 36 24 C25.47268233 19.94637768 15.62900397 14.81203816 6.5 8.1875 C5.84725098 7.71965088 5.19450195 7.25180176 4.52197266 6.76977539 C2.95179035 5.59267014 1.46637403 4.30414587 0 3 C0 2.01 0 1.02 0 0 Z " fill="#BA5EA9" transform="translate(153,409)"/>
<path d="M0 0 C1.18391888 3.55175664 0.78502454 4.19341155 -0.625 7.53515625 C-0.99866699 8.42299805 -1.37233398 9.31083984 -1.75732422 10.22558594 C-2.16740723 11.16176758 -2.57749023 12.09794922 -3 13.0625 C-3.41137207 14.0102832 -3.82274414 14.95806641 -4.24658203 15.93457031 C-7.10704731 22.36424952 -10.02299698 28.89405908 -15 34 C-16.485 34.495 -16.485 34.495 -18 35 C-17.67 34.01 -17.34 33.02 -17 32 C-16.34 32 -15.68 32 -15 32 C-15.33 30.02 -15.66 28.04 -16 26 C-15.38125 25.95875 -14.7625 25.9175 -14.125 25.875 C-13.42375 25.58625 -12.7225 25.2975 -12 25 C-10.91114536 22.32186171 -10.91114536 22.32186171 -10 19 C-8.75130362 16.28928827 -7.37299195 13.6494454 -6 11 C-5.33147697 9.66759646 -4.66429314 8.33451746 -4 7 C-3.34 7 -2.68 7 -2 7 C-1.34 4.69 -0.68 2.38 0 0 Z " fill="#D27295" transform="translate(292,411)"/>
<path d="M0 0 C0.33 0 0.66 0 1 0 C3.49057093 12.63075258 3.20534438 25.18335144 3 38 C4.32 38.33 5.64 38.66 7 39 C6.690625 39.7425 6.38125 40.485 6.0625 41.25 C5.1905075 43.50692176 4.52332993 45.6450153 4 48 C3.34 47.67 2.68 47.34 2 47 C0.35 51.29 -1.3 55.58 -3 60 C-4.28908538 56.13274386 -3.40610118 54.51755077 -2.125 50.6875 C0.5549116 42.61965425 1.1635914 35.50368044 1.125 27.0625 C1.12306641 26.04792725 1.12113281 25.03335449 1.11914062 23.98803711 C1.07333432 15.95730202 0.70768433 7.99936039 0 0 Z " fill="#C792E6" transform="translate(217,154)"/>
<path d="M0 0 C1.32 0 2.64 0 4 0 C4.33 0.66 4.66 1.32 5 2 C6.98 1.34 8.96 0.68 11 0 C9.64763423 2.93879484 8.10057341 5.29232911 6 7.75 C5.484375 8.36359375 4.96875 8.9771875 4.4375 9.609375 C3 11 3 11 1 11 C1 11.66 1 12.32 1 13 C-0.96147874 14.38938077 -2.96166576 15.7260411 -5 17 C-5 16.01 -5 15.02 -5 14 C-5.66 13.67 -6.32 13.34 -7 13 C-5.35 13 -3.7 13 -2 13 C-2.33 11.35 -2.66 9.7 -3 8 C-2.01 8 -1.02 8 0 8 C0 5.36 0 2.72 0 0 Z " fill="#D61640" transform="translate(354,393)"/>
<path d="M0 0 C0.99 0.99 1.98 1.98 3 3 C2.34 3.66 1.68 4.32 1 5 C0.3574765 7.06874034 0.3574765 7.06874034 0 9 C-1.98 9 -3.96 9 -6 9 C-6 10.98 -6 12.96 -6 15 C-6.763125 15.2475 -7.52625 15.495 -8.3125 15.75 C-11.27791695 17.1292637 -12.38360273 18.19257315 -14 21 C-14 21.99 -14 22.98 -14 24 C-15.32 24 -16.64 24 -18 24 C-17.505 22.515 -17.505 22.515 -17 21 C-17.33 20.01 -17.66 19.02 -18 18 C-17.01 18 -16.02 18 -15 18 C-14.7525 17.38125 -14.505 16.7625 -14.25 16.125 C-13 14 -13 14 -11 13.0625 C-8.76277217 12.15143654 -8.76277217 12.15143654 -8.0625 9.625 C-6.71272312 6.29025711 -4.9475494 4.98959584 -2 3 C-1.34 3 -0.68 3 0 3 C0 2.01 0 1.02 0 0 Z " fill="#911ECB" transform="translate(206,231)"/>
<path d="M0 0 C0.33 0 0.66 0 1 0 C1.09928082 7.75493514 1.06059488 15.31068715 0 23 C-0.66 23 -1.32 23 -2 23 C-2.66 25.31 -3.32 27.62 -4 30 C-4.66 30 -5.32 30 -6 30 C-5.71935082 27.68613705 -5.42518311 25.37390992 -5.125 23.0625 C-4.96257812 21.77472656 -4.80015625 20.48695313 -4.6328125 19.16015625 C-4.42398437 18.11730469 -4.21515625 17.07445312 -4 16 C-3.34 15.67 -2.68 15.34 -2 15 C-2.33 14.01 -2.66 13.02 -3 12 C-3.99 12.495 -3.99 12.495 -5 13 C-4.67 11.68 -4.34 10.36 -4 9 C-3.34 9 -2.68 9 -2 9 C-2.226875 8.2575 -2.45375 7.515 -2.6875 6.75 C-3 4 -3 4 -1.625 1.6875 C-0.820625 0.8521875 -0.820625 0.8521875 0 0 Z " fill="#CB2B6C" transform="translate(294,388)"/>
<path d="M0 0 C5.73698772 1.17081382 10.29249484 3.28955272 14 8 C14 9.32 14 10.64 14 12 C10.28400809 12.20086443 9.22791555 12.1519437 6 10 C6.33 9.34 6.66 8.68 7 8 C6.34 8 5.68 8 5 8 C5 6.68 5 5.36 5 4 C4.34 4 3.68 4 3 4 C3 5.65 3 7.3 3 9 C2.01 9.495 2.01 9.495 1 10 C0.67 6.7 0.34 3.4 0 0 Z " fill="#9140DE" transform="translate(121,244)"/>
<path d="M0 0 C0.66 0 1.32 0 2 0 C2.66 4.29 3.32 8.58 4 13 C4.99 13.33 5.98 13.66 7 14 C6.67257812 14.71784668 6.34515625 15.43569336 6.0078125 16.17529297 C4.96304676 19.10357292 4.79328136 21.1087315 4.875 24.1953125 C4.89046875 25.15824219 4.9059375 26.12117188 4.921875 27.11328125 C4.94765625 28.10714844 4.9734375 29.10101563 5 30.125 C5.05100521 32.10655248 5.09307595 34.08836078 5.125 36.0703125 C5.14820313 36.94445801 5.17140625 37.81860352 5.1953125 38.71923828 C5 41 5 41 3 44 C2.94465088 43.0212793 2.88930176 42.04255859 2.83227539 41.03417969 C2.62551838 37.39609332 2.41373147 33.75831407 2.20043945 30.12060547 C2.10890113 28.54744235 2.01871913 26.97419968 1.92993164 25.40087891 C1.8019258 23.13682025 1.66901273 20.87309436 1.53515625 18.609375 C1.49656998 17.90818542 1.4579837 17.20699585 1.41822815 16.48455811 C1.2195183 13.20115139 0.84869043 10.17278976 0 7 C-0.03888349 4.66699067 -0.0448635 2.33290199 0 0 Z " fill="#BF1C58" transform="translate(317,363)"/>
<path d="M0 0 C0.33 0 0.66 0 1 0 C1.18686041 6.44990603 0.60864441 12.15565764 -0.8125 18.4375 C-0.99264648 19.26354736 -1.17279297 20.08959473 -1.35839844 20.94067383 C-2.64125534 26.70955642 -4.09967691 32.39980544 -6 38 C-6.99 37.34 -7.98 36.68 -9 36 C-9.1875 32.875 -9.1875 32.875 -9 30 C-8.34 29.67 -7.68 29.34 -7 29 C-6.3838935 26.74998736 -6.3838935 26.74998736 -6 24.125 C-5.4277221 20.61979783 -5.01953816 19.02930724 -3 16 C-2.38605779 13.26542253 -1.84714777 10.57071017 -1.375 7.8125 C-1.2409375 7.06291016 -1.106875 6.31332031 -0.96875 5.54101562 C-0.63954581 3.69512072 -0.31893502 1.84769691 0 0 Z " fill="#DB7293" transform="translate(405,293)"/>
<path d="M0 0 C0.46148437 0.35191406 0.92296875 0.70382813 1.3984375 1.06640625 C6.20882583 4.70747093 11.10998128 8.18196012 16.09375 11.58203125 C16.7228125 12.04996094 17.351875 12.51789063 18 13 C18 13.33 18 13.66 18 14 C15.33333333 14 12.66666667 14 10 14 C9.67 13.01 9.34 12.02 9 11 C6.69 10.67 4.38 10.34 2 10 C0.68373308 6.38026598 0 3.90432869 0 0 Z " fill="#944BD7" transform="translate(135,253)"/>
<path d="M0 0 C1.5922916 5.37398414 1.05135696 8.87160759 -1 14 C-0.95875 14.825 -0.9175 15.65 -0.875 16.5 C-1.05109971 20.02199412 -2.5950563 21.52432266 -5 24 C-5.66 24 -6.32 24 -7 24 C-8.3027944 18.93943447 -7.7051094 16.52815929 -5.1875 12 C-3.02387342 8.05305174 -1.31510996 4.3109946 0 0 Z " fill="#8326BA" transform="translate(219,199)"/>
<path d="M0 0 C3.10147047 1.18151256 4.47801426 0.88761136 7.625 0 C8.388125 -0.185625 9.15125 -0.37125 9.9375 -0.5625 C10.494375 -0.706875 11.05125 -0.85125 11.625 -1 C11.625 -0.01 11.625 0.98 11.625 2 C10.635 2 9.645 2 8.625 2 C8.625 2.66 8.625 3.32 8.625 4 C10.605 4 12.585 4 14.625 4 C14.955 5.32 15.285 6.64 15.625 8 C8.55529694 7.5067649 2.02031775 4.97521304 -4.375 2 C-4.705 1.34 -5.035 0.68 -5.375 0 C-2.375 -1 -2.375 -1 0 0 Z " fill="#BA277C" transform="translate(201.375,434)"/>
<path d="M0 0 C2.49505962 2.49505962 2.35948376 3.67328888 2.625 7.125 C2.69976562 8.03507813 2.77453125 8.94515625 2.8515625 9.8828125 C2.90054688 10.58148438 2.94953125 11.28015625 3 12 C2.67 11.34 2.34 10.68 2 10 C1.01 10 0.02 10 -1 10 C-1.433125 11.010625 -1.86625 12.02125 -2.3125 13.0625 C-2.71855469 14.00996094 -2.71855469 14.00996094 -3.1328125 14.9765625 C-3.41898437 15.64429688 -3.70515625 16.31203125 -4 17 C-4.5625 18.3125 -5.125 19.625 -5.6875 20.9375 C-6.120625 21.948125 -6.55375 22.95875 -7 24 C-7.33 24 -7.66 24 -8 24 C-7.5468759 16.44793161 -5.48626345 5.48626345 0 0 Z " fill="#A47EDA" transform="translate(110,204)"/>
<path d="M0 0 C2.93230193 1.32120828 4.98664899 2.74638197 7.234375 5.0390625 C8.09482422 5.90917969 8.09482422 5.90917969 8.97265625 6.796875 C9.55917969 7.40015625 10.14570313 8.0034375 10.75 8.625 C11.35199219 9.23601562 11.95398438 9.84703125 12.57421875 10.4765625 C14.05405305 11.97988624 15.52764676 13.48934856 17 15 C16.67 15.66 16.34 16.32 16 17 C15.01 16.01 14.02 15.02 13 14 C11.35 14.66 9.7 15.32 8 16 C7.67 13.69 7.34 11.38 7 9 C6.34 9 5.68 9 5 9 C4.67 8.34 4.34 7.68 4 7 C3.01 7 2.02 7 1 7 C1.33 6.01 1.66 5.02 2 4 C1.12516085 1.83284443 1.12516085 1.83284443 0 0 Z " fill="#C155A8" transform="translate(260,306)"/>
<path d="M0 0 C4.78255078 0.54971848 8.36500948 2.76187335 12.375 5.25 C13.00921875 5.63285156 13.6434375 6.01570312 14.296875 6.41015625 C18.67892948 9.08410378 22.85156331 11.97710815 27 15 C24 15 24 15 21.625 13.5 C18.70699222 11.83256698 17.27699137 11.91376338 14 12 C13.01 11.34 12.02 10.68 11 10 C11 9.34 11 8.68 11 8 C10.01 8 9.02 8 8 8 C8 7.34 8 6.68 8 6 C7.34 6 6.68 6 6 6 C6 5.01 6 4.02 6 3 C4.02 2.34 2.04 1.68 0 1 C0 0.67 0 0.34 0 0 Z " fill="#BC73CB" transform="translate(314,139)"/>
<path d="M0 0 C0.33 0 0.66 0 1 0 C1.33 3.3 1.66 6.6 2 10 C2.66 10 3.32 10 4 10 C10.1002672 26.47072143 10.1002672 26.47072143 8 34 C6.8356027 30.40157235 5.69705723 26.79543639 4.5625 23.1875 C4.23701172 22.18267578 3.91152344 21.17785156 3.57617188 20.14257812 C1.47569413 13.40805671 0.33320021 7.04766294 0 0 Z " fill="#C394DE" transform="translate(95,310)"/>
<path d="M0 0 C2.96865509 2.54456151 4.3619751 5.48994665 6 9 C6.66 9 7.32 9 8 9 C8.103125 9.639375 8.20625 10.27875 8.3125 10.9375 C8.539375 11.618125 8.76625 12.29875 9 13 C9.99 13.33 10.98 13.66 12 14 C13.89800405 17.7960081 14.87949799 21.91817126 16 26 C11.11128745 21.6864301 8.18844773 16.64238394 5 11 C4.50757812 10.14921875 4.01515625 9.2984375 3.5078125 8.421875 C0 2.27824859 0 2.27824859 0 0 Z " fill="#BE7ACD" transform="translate(110,357)"/>
<path d="M0 0 C0.33 0 0.66 0 1 0 C3.27678571 8.03571429 3.27678571 8.03571429 2 12 C2.99 12 3.98 12 5 12 C6.71084699 17.51272919 7.4606443 20.53190155 5 26 C2.04816899 23.04816899 1.91336012 20.04488053 1 16 C0.67 16 0.34 16 0 16 C0 10.72 0 5.44 0 0 Z " fill="#8026E3" transform="translate(216,130)"/>
<path d="M0 0 C0.33 0.66 0.66 1.32 1 2 C1.66 2 2.32 2 3 2 C3.625 4.3125 3.625 4.3125 4 7 C3.01 8.485 3.01 8.485 2 10 C1.34 10 0.68 10 0 10 C-1.32 10.33 -2.64 10.66 -4 11 C-4.66 14.3 -5.32 17.6 -6 21 C-6.33 21 -6.66 21 -7 21 C-6.36979363 13.94168865 -4.96715211 7.95072817 -1 2 C-0.67 1.34 -0.34 0.68 0 0 Z " fill="#6C27DE" transform="translate(109,212)"/>
<path d="M0 0 C2.31 0.33 4.62 0.66 7 1 C6.67 1.99 6.34 2.98 6 4 C5.34 4 4.68 4 4 4 C3.9175 5.11375 3.835 6.2275 3.75 7.375 C3 11 3 11 1.0625 12.5 C-1 13 -1 13 -3 12 C-2.01 8.04 -1.02 4.08 0 0 Z " fill="#D01658" transform="translate(274,432)"/>
<path d="M0 0 C2.05190767 2.46228921 3.47259832 4.92526417 4.8125 7.8125 C6.90231649 12.14663303 9.72521341 15.5068943 13 19 C12.67 19.66 12.34 20.32 12 21 C9.36 19.68 6.72 18.36 4 17 C4 15.35 4 13.7 4 12 C3.34 11.67 2.68 11.34 2 11 C0.68254143 7.12081644 0 4.11624135 0 0 Z " fill="#A06CDE" transform="translate(117,227)"/>
<path d="M0 0 C3.53873697 -0.07077474 6.81683177 -0.03110404 10.3125 0.5625 C12.96193326 1.26283158 12.96193326 1.26283158 15 0 C17.125 0.9375 17.125 0.9375 19 2 C18.67 2.66 18.34 3.32 18 4 C15.75 4.44921875 15.75 4.44921875 13 4.6875 C12.0925 4.77386719 11.185 4.86023438 10.25 4.94921875 C9.13625 4.97435547 9.13625 4.97435547 8 5 C7.67 4.67 7.34 4.34 7 4 C4.67182036 3.63239269 2.3381615 3.29758419 0 3 C0 2.01 0 1.02 0 0 Z " fill="#C22369" transform="translate(228,441)"/>
<path d="M0 0 C0.33 0 0.66 0 1 0 C1 5.94 1 11.88 1 18 C0.01 18 -0.98 18 -2 18 C-2.66 20.64 -3.32 23.28 -4 26 C-4.33 26 -4.66 26 -5 26 C-4.62265298 16.92480412 -2.51466171 8.66681081 0 0 Z " fill="#AD81E7" transform="translate(101,228)"/>
<path d="M0 0 C3.71914154 1.23971385 4.18401331 2.82706936 5.953125 6.16796875 C7.05027051 8.22007786 7.05027051 8.22007786 9.1875 10.5625 C11.30118607 13.40504334 11.67549083 15.51152642 12 19 C9.72494996 16.83328568 7.76424908 14.60436769 6 12 C6 11.34 6 10.68 6 10 C5.34 10 4.68 10 4 10 C0 4.58823529 0 4.58823529 0 2 C-0.66 1.67 -1.32 1.34 -2 1 C-1.34 0.67 -0.68 0.34 0 0 Z " fill="#C266A5" transform="translate(286,304)"/>
<path d="M0 0 C1.23268696 3.69806088 0.59433466 4.84773679 -0.75 8.4375 C-1.09546875 9.38496094 -1.4409375 10.33242188 -1.796875 11.30859375 C-2.94350119 13.87361144 -4.22164429 15.83837798 -6 18 C-5.46274105 14.62294375 -4.88935377 11.303314 -4 8 C-4.66 8 -5.32 8 -6 8 C-5.8125 5.125 -5.8125 5.125 -5 2 C-2.4375 0.625 -2.4375 0.625 0 0 Z " fill="#BD1E4A" transform="translate(397,328)"/>
<path d="M0 0 C0.99 0.495 0.99 0.495 2 1 C2 1.66 2 2.32 2 3 C7.58680041 4.96292988 13.28252551 6.47398368 19 8 C19 8.66 19 9.32 19 10 C20.32 9.67 21.64 9.34 23 9 C23.66 10.32 24.32 11.64 25 13 C19.40296946 11.67157093 13.97999683 10.12123838 8.5625 8.1875 C7.84384766 7.95224609 7.12519531 7.71699219 6.38476562 7.47460938 C4.31640625 6.73046875 4.31640625 6.73046875 1 5 C0.02734375 2.30078125 0.02734375 2.30078125 0 0 Z " fill="#9026A9" transform="translate(211,256)"/>
<path d="M0 0 C2.90802461 2.21928194 4.95312762 3.92969143 7 7 C6.67 7.99 6.34 8.98 6 10 C2.625 9.6875 2.625 9.6875 -1 9 C-3 6 -3 6 -3 3 C-1.5 1.3125 -1.5 1.3125 0 0 Z " fill="#B41588" transform="translate(272,319)"/>
<path d="M0 0 C5.09451626 7.64177439 6.58250975 17.94046156 7 27 C5 24 5 24 5 21 C4.34 21 3.68 21 3 21 C2.67 16.71 2.34 12.42 2 8 C1.34 8 0.68 8 0 8 C0 5.36 0 2.72 0 0 Z " fill="#D27BA8" transform="translate(398,229)"/>
<path d="M0 0 C1.32 0.66 2.64 1.32 4 2 C4 4.97 4 7.94 4 11 C4.66 11 5.32 11 6 11 C6.33 14.63 6.66 18.26 7 22 C6.34 22 5.68 22 5 22 C4.82984375 20.95199219 4.6596875 19.90398437 4.484375 18.82421875 C4.24045936 17.44515727 3.99561916 16.06625909 3.75 14.6875 C3.64042969 13.99720703 3.53085937 13.30691406 3.41796875 12.59570312 C2.81017089 9.28480425 2.38276078 7.35936984 -0.109375 5.01953125 C-0.73328125 4.68308594 -1.3571875 4.34664062 -2 4 C-1.34 4 -0.68 4 0 4 C0 2.68 0 1.36 0 0 Z " fill="#B81D71" transform="translate(394,226)"/>
<path d="M0 0 C1.65 0.33 3.3 0.66 5 1 C5 1.66 5 2.32 5 3 C6.65 3 8.3 3 10 3 C10.33 3.99 10.66 4.98 11 6 C9.37828761 6.38897161 7.75245075 6.76078298 6.125 7.125 C5.22007812 7.33382812 4.31515625 7.54265625 3.3828125 7.7578125 C2.59648437 7.83773437 1.81015625 7.91765625 1 8 C0.34 7.34 -0.32 6.68 -1 6 C-0.34 5.01 0.32 4.02 1 3 C0.67 2.01 0.34 1.02 0 0 Z " fill="#891EC3" transform="translate(288,129)"/>
<path d="M0 0 C0.33 0 0.66 0 1 0 C1 3.3 1 6.6 1 10 C0.34 8.68 -0.32 7.36 -1 6 C-2.5833253 7.2488427 -2.5833253 7.2488427 -4 9 C-4 10.32 -4 11.64 -4 13 C-4.78375 13.309375 -5.5675 13.61875 -6.375 13.9375 C-8.92330128 14.92875038 -8.92330128 14.92875038 -11 16 C-9.54997977 11.89160936 -7.6020866 8.49655387 -5 5 C-4.34 5 -3.68 5 -3 5 C-2.690625 4.360625 -2.38125 3.72125 -2.0625 3.0625 C-1 1 -1 1 0 0 Z " fill="#6D27F4" transform="translate(235,58)"/>
<path d="M0 0 C3.86933162 0.57323431 6.15222057 2.38953552 9 5 C9 5.66 9 6.32 9 7 C9.99 7 10.98 7 12 7 C12.33 8.32 12.66 9.64 13 11 C11.29351419 10.26386886 9.58772028 9.52606045 7.88671875 8.77734375 C5.86688912 7.90280753 5.86688912 7.90280753 3.125 7.1875 C2.42375 6.795625 1.7225 6.40375 1 6 C0.1875 2.875 0.1875 2.875 0 0 Z " fill="#7F20D9" transform="translate(256,112)"/>
<path d="M0 0 C0.66 0.33 1.32 0.66 2 1 C1.61328125 1.42410156 1.2265625 1.84820312 0.828125 2.28515625 C-1.81414896 5.2609846 -4.18281447 8.10542421 -6.0625 11.625 C-8.0877304 15.1528207 -10.03393411 17.28110627 -13 20 C-12.5020163 16.26512223 -12.12508244 14.18762365 -10 11 C-9.34 11 -8.68 11 -8 11 C-7.73445312 10.41734375 -7.46890625 9.8346875 -7.1953125 9.234375 C-5.96697004 6.93825772 -4.59685061 5.19643982 -2.875 3.25 C-2.33617187 2.63640625 -1.79734375 2.0228125 -1.2421875 1.390625 C-0.62730469 0.70226563 -0.62730469 0.70226563 0 0 Z " fill="#B295E7" transform="translate(235,54)"/>
<path d="M0 0 C2.0625 0.4375 2.0625 0.4375 4 1 C3.98839844 1.67546875 3.97679688 2.3509375 3.96484375 3.046875 C3.95582031 3.93890625 3.94679688 4.8309375 3.9375 5.75 C3.92589844 6.63171875 3.91429688 7.5134375 3.90234375 8.421875 C3.99173802 10.7818838 4.33087179 12.74498524 5 15 C1.69020032 12.18667027 -0.1048141 8.858057 -2 5 C-1.81475306 2.65353874 -1.64739642 1.64739642 0 0 Z " fill="#8621AC" transform="translate(112,352)"/>
<path d="M0 0 C-0.33 0.66 -0.66 1.32 -1 2 C1.475 2.495 1.475 2.495 4 3 C4 3.66 4 4.32 4 5 C-3.26 4.01 -10.52 3.02 -18 2 C-18 1.67 -18 1.34 -18 1 C-11.96445452 0.30739642 -6.07593562 -0.11251733 0 0 Z " fill="#C080D6" transform="translate(200,255)"/>
<path d="M0 0 C2.475 0.495 2.475 0.495 5 1 C5 1.66 5 2.32 5 3 C6.65 3 8.3 3 10 3 C10.33 3.99 10.66 4.98 11 6 C12.65 6.33 14.3 6.66 16 7 C16 7.99 16 8.98 16 10 C12.51873079 8.6413032 9.11851499 7.18120256 5.75 5.5625 C4.87859375 5.15128906 4.0071875 4.74007813 3.109375 4.31640625 C1 3 1 3 0 0 Z " fill="#AE348B" transform="translate(173,423)"/>
<path d="M0 0 C3.76140292 1.48302009 5.37326416 3.50433303 7.625 6.8125 C8.21539062 7.66457031 8.80578125 8.51664063 9.4140625 9.39453125 C10.92499374 11.87677543 12.0112259 14.27352884 13 17 C12.52949219 16.59007812 12.05898438 16.18015625 11.57421875 15.7578125 C10.95160156 15.21898437 10.32898438 14.68015625 9.6875 14.125 C8.76517578 13.32449219 8.76517578 13.32449219 7.82421875 12.5078125 C5.86501788 10.8359553 5.86501788 10.8359553 3 9 C2.05078125 6.8359375 2.05078125 6.8359375 1.3125 4.375 C1.06113281 3.55773437 0.80976563 2.74046875 0.55078125 1.8984375 C0.36902344 1.27195313 0.18726563 0.64546875 0 0 Z " fill="#CA81BE" transform="translate(372,184)"/>
<path d="M0 0 C0.40729228 2.32156597 0.74438677 4.6568787 1 7 C-0.32 7.33 -1.64 7.66 -3 8 C-3 7.01 -3 6.02 -3 5 C-4.65 4.67 -6.3 4.34 -8 4 C-7 1 -7 1 -4.5625 -0.25 C-2 -1 -2 -1 0 0 Z " fill="#B51D81" transform="translate(192,425)"/>
<path d="M0 0 C0.66 0.33 1.32 0.66 2 1 C0.44210317 2.13136586 -1.12153857 3.25482321 -2.6875 4.375 C-3.55761719 5.00148438 -4.42773438 5.62796875 -5.32421875 6.2734375 C-7.83596952 7.89415843 -10.19299187 8.99858088 -13 10 C-12.34 8.35 -11.68 6.7 -11 5 C-10.34 5 -9.68 5 -9 5 C-8.67 4.01 -8.34 3.02 -8 2 C-6.2984375 1.7834375 -6.2984375 1.7834375 -4.5625 1.5625 C-1.19222799 1.38828522 -1.19222799 1.38828522 0 0 Z " fill="#DD718A" transform="translate(336,420)"/>
<path d="M0 0 C4.55700425 0.52484692 7.192874 2.31507303 10.8125 5.0625 C11.78832031 5.79597656 12.76414062 6.52945312 13.76953125 7.28515625 C14.87361328 8.13400391 14.87361328 8.13400391 16 9 C15.01 9.495 15.01 9.495 14 10 C8.99848523 8.16385832 4.24717119 5.18537839 0 2 C0 1.34 0 0.68 0 0 Z " fill="#C175BA" transform="translate(244,296)"/>
<path d="M0 0 C0.3449145 1.33038449 0.67516582 2.66457061 1 4 C1.20625 4.845625 1.4125 5.69125 1.625 6.5625 C2 9 2 9 1 12 C0.7834375 13.299375 0.7834375 13.299375 0.5625 14.625 C0.376875 15.40875 0.19125 16.1925 0 17 C-0.66 17.33 -1.32 17.66 -2 18 C-2.20852314 11.59370576 -2.1583195 6.07027358 0 0 Z " fill="#7026DC" transform="translate(99,244)"/>
<path d="M0 0 C3.88354524 5.82531785 1.24426503 14.15976774 -0.0625 20.75 C-0.36799158 22.16819448 -0.67767742 23.58553584 -1 25 C-1.33 25 -1.66 25 -2 25 C-2.02685938 22.85423363 -2.04633088 20.70837355 -2.0625 18.5625 C-2.07410156 17.36753906 -2.08570313 16.17257812 -2.09765625 14.94140625 C-2 12 -2 12 -1 11 C-0.76636119 9.15108054 -0.58696365 7.29511969 -0.4375 5.4375 C-0.35371094 4.42558594 -0.26992188 3.41367187 -0.18359375 2.37109375 C-0.12300781 1.58863281 -0.06242187 0.80617188 0 0 Z " fill="#BB275A" transform="translate(403,291)"/>
<path d="M0 0 C1.4606285 2.64738916 2 3.89448334 2 7 C-0.97 6.505 -0.97 6.505 -4 6 C-4 5.34 -4 4.68 -4 4 C-5.98 4 -7.96 4 -10 4 C-9 2 -9 2 -6.125 0.875 C-3 0 -3 0 0 0 Z " fill="#9730C2" transform="translate(208,254)"/>
<path d="M0 0 C0.99 0 1.98 0 3 0 C3 2.31 3 4.62 3 7 C0.66785852 8.20628008 -1.49642139 9.1654738 -4 10 C-3.5289356 5.85463326 -3.0080208 3.0080208 0 0 Z " fill="#8E59E7" transform="translate(221,73)"/>
<path d="M0 0 C1.65 0.33 3.3 0.66 5 1 C5.625 3.875 5.625 3.875 6 7 C5.34 7.66 4.68 8.32 4 9 C3.01 9 2.02 9 1 9 C1 7.35 1 5.7 1 4 C0.34 4 -0.32 4 -1 4 C-0.67 2.68 -0.34 1.36 0 0 Z " fill="#D6173D" transform="translate(359,386)"/>
<path d="M0 0 C4.09480199 3.74381897 7.7448683 7.8668907 10 13 C9.67 13.99 9.34 14.98 9 16 C8.01 14.68 7.02 13.36 6 12 C5.01 12.495 5.01 12.495 4 13 C4 11.68 4 10.36 4 9 C3.34 9 2.68 9 2 9 C1.34 6.03 0.68 3.06 0 0 Z " fill="#D17CB6" transform="translate(277,323)"/>
<path d="M0 0 C8.34532212 1.26525851 16.67780601 2.59047525 25 4 C25 4.33 25 4.66 25 5 C20.05 5 15.1 5 10 5 C10 4.34 10 3.68 10 3 C9.36191406 2.95101563 8.72382813 2.90203125 8.06640625 2.8515625 C7.24011719 2.77679688 6.41382813 2.70203125 5.5625 2.625 C4.73878906 2.55539062 3.91507813 2.48578125 3.06640625 2.4140625 C2.38449219 2.27742188 1.70257813 2.14078125 1 2 C0.67 1.34 0.34 0.68 0 0 Z " fill="#D9AAE4" transform="translate(179,277)"/>
<path d="M0 0 C2.0625 0.25 2.0625 0.25 4 1 C4.33 1.66 4.66 2.32 5 3 C4.67 3.66 4.34 4.32 4 5 C4.99 5.33 5.98 5.66 7 6 C6.67 6.66 6.34 7.32 6 8 C5.34 8 4.68 8 4 8 C3.34 7.34 2.68 6.68 2 6 C0.03511169 5.11221308 0.03511169 5.11221308 -2.125 4.375 C-2.84945312 4.11460937 -3.57390625 3.85421875 -4.3203125 3.5859375 C-4.87460938 3.39257812 -5.42890625 3.19921875 -6 3 C-5.38125 2.87625 -4.7625 2.7525 -4.125 2.625 C-1.80879168 2.12802644 -1.80879168 2.12802644 0 0 Z " fill="#B3198D" transform="translate(174,418)"/>
<path d="M0 0 C0.99 0 1.98 0 3 0 C1.26017005 5.81261371 -0.8110489 10.83169994 -4 16 C-5.43088528 13.13822943 -4.59991697 11.06624227 -4 8 C-3.34 8 -2.68 8 -2 8 C-2 7.34 -2 6.68 -2 6 C-1.34 6 -0.68 6 0 6 C-0.2784375 4.7934375 -0.2784375 4.7934375 -0.5625 3.5625 C-0.706875 2.716875 -0.85125 1.87125 -1 1 C-0.67 0.67 -0.34 0.34 0 0 Z " fill="#D96F88" transform="translate(387,352)"/>
<path d="M0 0 C0.66 0 1.32 0 2 0 C2 0.66 2 1.32 2 2 C2.99 2 3.98 2 5 2 C5 2.66 5 3.32 5 4 C6.98 4.66 8.96 5.32 11 6 C11 6.99 11 7.98 11 9 C10.01 9 9.02 9 8 9 C8 8.34 8 7.68 8 7 C7.34 7 6.68 7 6 7 C6 6.34 6 5.68 6 5 C5.01 5.66 4.02 6.32 3 7 C2.01 7 1.02 7 0 7 C0 4.69 0 2.38 0 0 Z " fill="#A019BD" transform="translate(320,145)"/>
<path d="M0 0 C0.99 0 1.98 0 3 0 C3.34615998 5.65394631 2.43425238 9.03006806 0 14 C-0.66 14 -1.32 14 -2 14 C-1.34 9.38 -0.68 4.76 0 0 Z " fill="#BD225E" transform="translate(290,404)"/>
<path d="M0 0 C0 3.77910478 -0.99703962 4.46106101 -3.5 7.1875 C-4.1496875 7.90292969 -4.799375 8.61835938 -5.46875 9.35546875 C-5.9740625 9.89816406 -6.479375 10.44085938 -7 11 C-7.66 10.67 -8.32 10.34 -9 10 C-8.4375 6.6875 -8.4375 6.6875 -7 3 C-4.70531217 1.4631421 -2.67327763 0.8415874 0 0 Z " fill="#DA6479" transform="translate(364,393)"/>
<path d="M0 0 C2.475 0.99 2.475 0.99 5 2 C5 3.65 5 5.3 5 7 C5.66 7 6.32 7 7 7 C6.67 8.98 6.34 10.96 6 13 C2.84297684 9.09130466 0 5.1385061 0 0 Z " fill="#B473CF" transform="translate(104,344)"/>
<path d="M0 0 C5.18039987 -0.63175608 7.66878358 0.74182681 11.6796875 3.7109375 C12.11539063 4.13632812 12.55109375 4.56171875 13 5 C13 5.66 13 6.32 13 7 C10.69 6.34 8.38 5.68 6 5 C6 4.34 6 3.68 6 3 C5.34 3 4.68 3 4 3 C4 3.66 4 4.32 4 5 C3.01 4.67 2.02 4.34 1 4 C0.3125 1.9375 0.3125 1.9375 0 0 Z " fill="#8F31CD" transform="translate(149,267)"/>
<path d="M0 0 C6.64615385 1.47692308 6.64615385 1.47692308 8.4375 4.125 C8.7159375 5.053125 8.7159375 5.053125 9 6 C8.01 6.33 7.02 6.66 6 7 C5.67 6.01 5.34 5.02 5 4 C4.34 4 3.68 4 3 4 C3 5.65 3 7.3 3 9 C2.01 9.495 2.01 9.495 1 10 C0.67 6.7 0.34 3.4 0 0 Z " fill="#7C24E3" transform="translate(121,244)"/>
<path d="M0 0 C1.32 0.33 2.64 0.66 4 1 C4 5.22528092 3.74375671 6.04518508 1 9 C0.34 9 -0.32 9 -1 9 C-1.625 6.1875 -1.625 6.1875 -2 3 C-1.34 2.01 -0.68 1.02 0 0 Z " fill="#9536C6" transform="translate(213,214)"/>
<path d="M0 0 C0.99 0 1.98 0 3 0 C4.03290841 1.93108963 5.05098672 3.870118 6.0625 5.8125 C6.63097656 6.89144531 7.19945312 7.97039062 7.78515625 9.08203125 C9 12 9 12 8 15 C5 10.25 5 10.25 5 8 C4.34 8 3.68 8 3 8 C0 2.25 0 2.25 0 0 Z " fill="#CD82B5" transform="translate(388,210)"/>
<path d="M0 0 C3.8718417 1.25573244 6.02838671 2.36808079 8 6 C8.1875 8.75 8.1875 8.75 8 11 C7.67 10.34 7.34 9.68 7 9 C6.34 9 5.68 9 5 9 C4.67 8.34 4.34 7.68 4 7 C3.01 6.34 2.02 5.68 1 5 C0.3125 2.375 0.3125 2.375 0 0 Z " fill="#AD1F88" transform="translate(376,194)"/>
<path d="M0 0 C0.33 0 0.66 0 1 0 C1.48164188 2.35368393 1.96036648 4.70790155 2.4375 7.0625 C2.57220703 7.71927734 2.70691406 8.37605469 2.84570312 9.05273438 C3.71470632 13.35535995 4.4172492 17.64917124 5 22 C4.34 22.33 3.68 22.66 3 23 C0.70629774 15.17683695 -0.433422 8.15475474 0 0 Z " fill="#7C32C9" transform="translate(217,143)"/>
<path d="M0 0 C1.43931117 0.45261358 2.87638999 0.91232979 4.3125 1.375 C5.11300781 1.63023438 5.91351563 1.88546875 6.73828125 2.1484375 C9 3 9 3 12 5 C8.73086376 6.03115279 6.13958652 5.9638984 2.75 5.5625 C1.85796875 5.46066406 0.9659375 5.35882813 0.046875 5.25390625 C-0.62859375 5.17011719 -1.3040625 5.08632812 -2 5 C-2 4.34 -2 3.68 -2 3 C-1.01 3 -0.02 3 1 3 C0.67 2.01 0.34 1.02 0 0 Z " fill="#A65BD3" transform="translate(279,124)"/>
<path d="M0 0 C2.04943169 2.04943169 3.21078802 3.91921024 4.625 6.4375 C5.07101563 7.21996094 5.51703125 8.00242187 5.9765625 8.80859375 C7 11 7 11 7 14 C6.01 13.67 5.02 13.34 4 13 C4 12.34 4 11.68 4 11 C3.34 11 2.68 11 2 11 C0.19769832 7.17010894 -0.19622241 4.21878192 0 0 Z " fill="#A171DA" transform="translate(242,88)"/>
<path d="M0 0 C1.32 0 2.64 0 4 0 C7.00617269 3.00617269 6.59585316 5.82381598 7 10 C2.33845958 8.50164772 1.13389249 5.11536409 -1 1 C-0.67 0.67 -0.34 0.34 0 0 Z " fill="#BA1487" transform="translate(289,304)"/>
<path d="M0 0 C1.5 1.1875 1.5 1.1875 3 3 C3.1875 5.6875 3.1875 5.6875 3 8 C1.68 8.33 0.36 8.66 -1 9 C-2.65 6.69 -4.3 4.38 -6 2 C-4.02 2.66 -2.04 3.32 0 4 C0 2.68 0 1.36 0 0 Z " fill="#AB1E88" transform="translate(285,296)"/>
<path d="M0 0 C5.54050113 0.56825653 10.03715966 2.62886517 15 5 C15 5.33 15 5.66 15 6 C13.35 6 11.7 6 10 6 C10 5.34 10 4.68 10 4 C7.36 4.33 4.72 4.66 2 5 C1.34 3.35 0.68 1.7 0 0 Z " fill="#94269A" transform="translate(223,288)"/>
<path d="M0 0 C8.86956522 0.73913043 8.86956522 0.73913043 12 4 C12 4.66 12 5.32 12 6 C12.99 6 13.98 6 15 6 C15.33 6.99 15.66 7.98 16 9 C12.20950293 7.57250019 8.72877544 5.83763458 5.1875 3.875 C4.21167969 3.33617187 3.23585937 2.79734375 2.23046875 2.2421875 C1.49441406 1.83226562 0.75835937 1.42234375 0 1 C0 0.67 0 0.34 0 0 Z " fill="#C781C7" transform="translate(243,274)"/>
<path d="M0 0 C0.99 0.33 1.98 0.66 3 1 C4.1875 4.0625 4.1875 4.0625 5 7 C2 9 2 9 -1 9 C-1.125 2.25 -1.125 2.25 0 0 Z " fill="#B41A7A" transform="translate(282,334)"/>
<path d="M0 0 C5.54050113 0.56825653 10.03715966 2.62886517 15 5 C15 5.66 15 6.32 15 7 C12.69 6.67 10.38 6.34 8 6 C7.67 5.01 7.34 4.02 7 3 C5.35 3 3.7 3 2 3 C2 2.34 2 1.68 2 1 C1.34 0.67 0.68 0.34 0 0 Z " fill="#B97FD1" transform="translate(291,129)"/>
<path d="M0 0 C6.14830711 1.20555041 8.35248219 2.91558124 12 8 C11.01 8.33 10.02 8.66 9 9 C5.8125 6.6875 5.8125 6.6875 3 4 C3 3.34 3 2.68 3 2 C2.01 2 1.02 2 0 2 C0 1.34 0 0.68 0 0 Z " fill="#B563B2" transform="translate(351,165)"/>
<path d="M0 0 C1.62978448 0.92915757 3.25368275 1.86864534 4.875 2.8125 C5.77992188 3.33457031 6.68484375 3.85664063 7.6171875 4.39453125 C10 6 10 6 12 9 C8.22272911 7.18690997 4.62730178 5.0926741 1 3 C1 3.66 1 4.32 1 5 C-0.65 4.67 -2.3 4.34 -4 4 C-2.68 2.68 -1.36 1.36 0 0 Z " fill="#C573CA" transform="translate(341,155)"/>
<path d="M0 0 C4.60476476 3.5522471 8.7586847 7.13802705 12 12 C7.02076087 10.72624115 4.25485439 8.9988211 1 5 C0.1875 2.1875 0.1875 2.1875 0 0 Z " fill="#B48BDE" transform="translate(250,102)"/>
<path d="M0 0 C-1.36687222 3.98671063 -3.15195093 6.88494633 -6 10 C-6.66 10 -7.32 10 -8 10 C-7.67 9.01 -7.34 8.02 -7 7 C-6.34 7 -5.68 7 -5 7 C-5.33 5.02 -5.66 3.04 -6 1 C-4 0 -4 0 0 0 Z " fill="#CC5982" transform="translate(282,436)"/>
<path d="M0 0 C0.93423645 3.01031744 1.04449911 3.86650268 0 7 C0.99 7 1.98 7 3 7 C3.33 5.68 3.66 4.36 4 3 C5.32 3.99 6.64 4.98 8 6 C4.27034861 8.03435531 2.33094958 9 -2 9 C-1.51421457 5.87709365 -1.0013988 3.00419641 0 0 Z " fill="#DA91A4" transform="translate(310,428)"/>
<path d="M0 0 C0.66 0.33 1.32 0.66 2 1 C2 3.31 2 5.62 2 8 C1.195625 8.2475 0.39125 8.495 -0.4375 8.75 C-3.171081 9.72238859 -3.171081 9.72238859 -3.8125 12.125 C-3.874375 12.74375 -3.93625 13.3625 -4 14 C-5 12 -5 12 -4.25 9 C-3 6 -3 6 0 4 C0 2.68 0 1.36 0 0 Z " fill="#D45578" transform="translate(316,414)"/>
<path d="M0 0 C0.99 0 1.98 0 3 0 C3 3.96 3 7.92 3 12 C-1 8 -1 8 -1.171875 5.859375 C-0.78125 3.90625 -0.390625 1.953125 0 0 Z " fill="#C5146F" transform="translate(290,359)"/>
<path d="M0 0 C1.36511719 0.29197266 1.36511719 0.29197266 2.7578125 0.58984375 C3.45648438 0.74582031 4.15515625 0.90179688 4.875 1.0625 C3.885 2.0525 2.895 3.0425 1.875 4.0625 C0.555 3.4025 -0.765 2.7425 -2.125 2.0625 C-2.125 2.7225 -2.125 3.3825 -2.125 4.0625 C-4.6 3.0725 -4.6 3.0725 -7.125 2.0625 C-7.125 1.4025 -7.125 0.7425 -7.125 0.0625 C-4.4030754 -1.2984623 -2.9418043 -0.64116248 0 0 Z " fill="#9F1ABD" transform="translate(200.125,283.9375)"/>
<path d="M0 0 C4.21775732 1.35525536 8.29421322 2.90200114 12.375 4.625 C13.96441406 5.29402344 13.96441406 5.29402344 15.5859375 5.9765625 C16.38257813 6.31429688 17.17921875 6.65203125 18 7 C14.80153844 8.06615385 13.69739078 7.95342597 10.5 7.25 C9.7265625 7.09015625 8.953125 6.9303125 8.15625 6.765625 C5.73153091 5.90467402 4.66890947 4.92490738 3 3 C2.443125 2.443125 1.88625 1.88625 1.3125 1.3125 C0.879375 0.879375 0.44625 0.44625 0 0 Z " fill="#C996DE" transform="translate(156,268)"/>
<path d="M0 0 C0.66 0 1.32 0 2 0 C1.6875 2.875 1.6875 2.875 1 6 C0.01 6.66 -0.98 7.32 -2 8 C-2.66 8.99 -3.32 9.98 -4 11 C-4.6875 8.75 -4.6875 8.75 -5 6 C-3.6875 3.6875 -3.6875 3.6875 -2 2 C-1.34 2 -0.68 2 0 2 C0 1.34 0 0.68 0 0 Z " fill="#D01944" transform="translate(381,362)"/>
<path d="M0 0 C0 1.65 0 3.3 0 5 C-0.99 5.33 -1.98 5.66 -3 6 C-3 7.65 -3 9.3 -3 11 C-3.66 11 -4.32 11 -5 11 C-5.33 11.66 -5.66 12.32 -6 13 C-6.05399736 11.54207116 -6.09279177 10.08357288 -6.125 8.625 C-6.15980469 7.40683594 -6.15980469 7.40683594 -6.1953125 6.1640625 C-6 4 -6 4 -4 2 C-4 2.66 -4 3.32 -4 4 C-3.34 4 -2.68 4 -2 4 C-2.33 3.01 -2.66 2.02 -3 1 C-1 0 -1 0 0 0 Z " fill="#CF1947" transform="translate(390,347)"/>
<path d="M0 0 C2.97 0 5.94 0 9 0 C9.33 0.99 9.66 1.98 10 3 C9.113125 2.979375 8.22625 2.95875 7.3125 2.9375 C4.37830369 2.99286219 1.84506304 3.3305734 -1 4 C-0.67 2.68 -0.34 1.36 0 0 Z " fill="#8621D0" transform="translate(270,124)"/>
<path d="M0 0 C3.21043882 1.38188453 5.04936365 2.92421903 7.25 5.625 C8.03117187 6.57246094 8.03117187 6.57246094 8.828125 7.5390625 C9.40820312 8.26222656 9.40820312 8.26222656 10 9 C8.35 9 6.7 9 5 9 C4.67 8.34 4.34 7.68 4 7 C3.01 7 2.02 7 1 7 C1.33 6.01 1.66 5.02 2 4 C1.12516085 1.83284443 1.12516085 1.83284443 0 0 Z " fill="#CB70B9" transform="translate(260,306)"/>
<path d="M0 0 C1.98 0.66 3.96 1.32 6 2 C6.33 3.98 6.66 5.96 7 8 C4.13792848 6.71700242 1.9754912 5.469364 0 3 C0 2.01 0 1.02 0 0 Z " fill="#B554B0" transform="translate(144,401)"/>
<path d="M0 0 C0.99 0.33 1.98 0.66 3 1 C2.67 1.99 2.34 2.98 2 4 C2.99 4 3.98 4 5 4 C4.67 5.65 4.34 7.3 4 9 C3.01 8.67 2.02 8.34 1 8 C-0.35439668 5.29120665 -0.06501451 2.99066732 0 0 Z " fill="#BF1B63" transform="translate(314,353)"/>
<path d="M0 0 C1.52299523 2.93720508 2.80100302 5.9168649 4 9 C2.68 9.99 1.36 10.98 0 12 C-0.66 10.02 -1.32 8.04 -2 6 C-1.01 6.33 -0.02 6.66 1 7 C0.67 4.69 0.34 2.38 0 0 Z " fill="#CA428B" transform="translate(307,330)"/>
<path d="M0 0 C0.99 0 1.98 0 3 0 C4.97094808 4.92737019 5.1799928 8.78020872 5 14 C4.67 14 4.34 14 4 14 C3.855625 13.236875 3.71125 12.47375 3.5625 11.6875 C2.86659538 8.36262238 2.43447177 6.43447177 0 4 C0 2.68 0 1.36 0 0 Z " fill="#BA3372" transform="translate(400,250)"/>
<path d="M0 0 C2.475 0.99 2.475 0.99 5 2 C5 2.99 5 3.98 5 5 C2.36 5 -0.28 5 -3 5 C-2.01 3.35 -1.02 1.7 0 0 Z " fill="#A219B7" transform="translate(333,153)"/>
<path d="M0 0 C0 0.66 0 1.32 0 2 C-2.3431213 1.74438677 -4.67843403 1.40729228 -7 1 C-7.33 0.34 -7.66 -0.32 -8 -1 C-4.59745511 -2.2151946 -3.06748874 -1.86240388 0 0 Z M-3 2 C-2.01 2.99 -1.02 3.98 0 5 C-1.98 5.99 -1.98 5.99 -4 7 C-3.67 5.35 -3.34 3.7 -3 2 Z " fill="#9622BE" transform="translate(188,281)"/>
<path d="M0 0 C1.65 0.33 3.3 0.66 5 1 C4.67 2.32 4.34 3.64 4 5 C2.35 5.33 0.7 5.66 -1 6 C-1.33 5.01 -1.66 4.02 -2 3 C-1.34 2.01 -0.68 1.02 0 0 Z " fill="#9833C7" transform="translate(174,276)"/>
<path d="M0 0 C1.32 0.33 2.64 0.66 4 1 C4 1.66 4 2.32 4 3 C2.25 4.7265625 2.25 4.7265625 0 6.625 C-0.7425 7.25664062 -1.485 7.88828125 -2.25 8.5390625 C-2.8275 9.02117187 -3.405 9.50328125 -4 10 C-4.66 9.67 -5.32 9.34 -6 9 C-4.6875 6.5 -4.6875 6.5 -3 4 C-2.01 4 -1.02 4 0 4 C0 2.68 0 1.36 0 0 Z " fill="#E2879D" transform="translate(344,410)"/>
<path d="M0 0 C2.97 0 5.94 0 9 0 C9.33 1.32 9.66 2.64 10 4 C6.53058454 3.54177532 3.32604951 3.10868317 0 2 C0 1.34 0 0.68 0 0 Z " fill="#C74E8B" transform="translate(207,438)"/>
<path d="M0 0 C1.78499513 5.35498538 -1.22751106 10.80913952 -3 16 C-3.33 16 -3.66 16 -4 16 C-3.47606294 10.13190493 -2.23891142 5.45126259 0 0 Z " fill="#D8BDF3" transform="translate(106,212)"/>
<path d="M0 0 C0.66 0 1.32 0 2 0 C2 0.66 2 1.32 2 2 C2.99 1.67 3.98 1.34 5 1 C6.0625 2.8125 6.0625 2.8125 7 5 C6.67 5.99 6.34 6.98 6 8 C5.01 7.67 4.02 7.34 3 7 C3 6.01 3 5.02 3 4 C2.01 3.67 1.02 3.34 0 3 C0 2.01 0 1.02 0 0 Z " fill="#8041E5" transform="translate(235,80)"/>
<path d="M0 0 C0.99 0.33 1.98 0.66 3 1 C2.67 3.64 2.34 6.28 2 9 C1.67 8.01 1.34 7.02 1 6 C0.34 6 -0.32 6 -1 6 C-0.67 4.02 -0.34 2.04 0 0 Z " fill="#D3184A" transform="translate(392,330)"/>
<path d="M0 0 C2.90802461 2.21928194 4.95312762 3.92969143 7 7 C6.67 7.99 6.34 8.98 6 10 C3.525 9.01 3.525 9.01 1 8 C1.66 7.67 2.32 7.34 3 7 C2.505 6.21625 2.01 5.4325 1.5 4.625 C0 2 0 2 0 0 Z " fill="#A92383" transform="translate(272,319)"/>
<path d="M0 0 C0.99 0.33 1.98 0.66 3 1 C2.67 2.32 2.34 3.64 2 5 C-0.31 5 -2.62 5 -5 5 C-3.35 3.35 -1.7 1.7 0 0 Z " fill="#7D23AC" transform="translate(183,250)"/>
<path d="M0 0 C4.75 0.75 4.75 0.75 7 3 C6.625 5.125 6.625 5.125 6 7 C1.125 3.375 1.125 3.375 0 0 Z " fill="#B96DAF" transform="translate(363,176)"/>
<path d="M0 0 C2.96404505 2.80804268 5.44499019 5.18315774 7 9 C3.34683329 7.75023244 2.21934164 7.32901247 0 4 C0 2.68 0 1.36 0 0 Z " fill="#B68FDD" transform="translate(123,239)"/>
<path d="M0 0 C2.4375 0.6875 2.4375 0.6875 5 2 C5.8125 4.625 5.8125 4.625 6 7 C4.125 6.875 4.125 6.875 2 6 C0.75 2.9375 0.75 2.9375 0 0 Z " fill="#98249B" transform="translate(344,159)"/>
<path d="M0 0 C4.51478398 0.53115106 7.34666857 2.36620292 11 5 C10.67 5.99 10.34 6.98 10 8 C9.34 8 8.68 8 8 8 C8 7.34 8 6.68 8 6 C7.34 6 6.68 6 6 6 C6 5.01 6 4.02 6 3 C4.02 2.34 2.04 1.68 0 1 C0 0.67 0 0.34 0 0 Z " fill="#CB93DA" transform="translate(314,139)"/>
<path d="M0 0 C3.96 0 7.92 0 12 0 C12.33 0.99 12.66 1.98 13 3 C11.39504433 2.88557539 9.79101881 2.75805306 8.1875 2.625 C7.29417969 2.55539062 6.40085938 2.48578125 5.48046875 2.4140625 C3 2 3 2 0 0 Z " fill="#AF1C65" transform="translate(214,440)"/>
<path d="M0 0 C1.32 0.33 2.64 0.66 4 1 C1.36 2.98 -1.28 4.96 -4 7 C-4.33 6.01 -4.66 5.02 -5 4 C-4.01 4 -3.02 4 -2 4 C-2 3.34 -2 2.68 -2 2 C-1.34 2 -0.68 2 0 2 C0 1.34 0 0.68 0 0 Z " fill="#BD2B46" transform="translate(337,416)"/>
<path d="M0 0 C1.875 0.625 1.875 0.625 4 2 C5.25 5.125 5.25 5.125 6 8 C4.68 7.67 3.36 7.34 2 7 C1.34 4.69 0.68 2.38 0 0 Z " fill="#A249AC" transform="translate(125,379)"/>
<path d="M0 0 C1.37562854 1.28965176 2.70766393 2.62689293 4 4 C4 4.66 4 5.32 4 6 C3.34 6 2.68 6 2 6 C2 7.65 2 9.3 2 11 C-0.67927341 6.98108988 -0.15601248 4.75838077 0 0 Z " fill="#C23B7B" transform="translate(312,347)"/>
<path d="M0 0 C1 2 1 2 0.1875 5.5625 C-1 9 -1 9 -3 10 C-3.36923077 3.47692308 -3.36923077 3.47692308 -1.5 1.0625 C-1.005 0.711875 -0.51 0.36125 0 0 Z " fill="#7B21EC" transform="translate(100,262)"/>
<path d="M0 0 C0.66 0.66 1.32 1.32 2 2 C1.01 2.66 0.02 3.32 -1 4 C-2.01324326 6.40972598 -2.01324326 6.40972598 -2.6875 9.125 C-2.93886719 10.03507812 -3.19023437 10.94515625 -3.44921875 11.8828125 C-3.63097656 12.58148438 -3.81273437 13.28015625 -4 14 C-4.33 14 -4.66 14 -5 14 C-4.09068323 5.05838509 -4.09068323 5.05838509 -2 1 C-1.34 0.67 -0.68 0.34 0 0 Z " fill="#622BCC" transform="translate(220,81)"/>
<path d="M0 0 C6.75 0.875 6.75 0.875 9 2 C9 2.99 9 3.98 9 5 C5.9168649 3.80100302 2.93720508 2.52299523 0 1 C0 0.67 0 0.34 0 0 Z " fill="#BE67A0" transform="translate(180,428)"/>
<path d="M0 0 C0.66 0.33 1.32 0.66 2 1 C1.50168276 4.68754757 0.89932357 6.60490662 -2 9 C-2.25 3.375 -2.25 3.375 0 0 Z " fill="#D41559" transform="translate(284,421)"/>
<path d="M0 0 C2.99529289 0.99843096 4.15840327 1.51384442 6 4 C5.6875 6.1875 5.6875 6.1875 5 8 C2.5 5.6875 2.5 5.6875 0 3 C0 2.01 0 1.02 0 0 Z " fill="#AB55AD" transform="translate(136,393)"/>
<path d="M0 0 C2 1 2 1 3.125 4.0625 C3.41375 5.031875 3.7025 6.00125 4 7 C2.02 6.34 0.04 5.68 -2 5 C-1.125 1.125 -1.125 1.125 0 0 Z " fill="#BD1686" transform="translate(387,211)"/>
<path d="M0 0 C0.598125 0.350625 1.19625 0.70125 1.8125 1.0625 C-0.1675 2.3825 -2.1475 3.7025 -4.1875 5.0625 C-4.5175 3.4125 -4.8475 1.7625 -5.1875 0.0625 C-2.1875 -0.9375 -2.1875 -0.9375 0 0 Z " fill="#A341C7" transform="translate(308.1875,135.9375)"/>
<path d="M0 0 C1.32 0.66 2.64 1.32 4 2 C4 2.66 4 3.32 4 4 C2.03852126 5.38938077 0.03833424 6.7260411 -2 8 C-2 7.01 -2 6.02 -2 5 C-2.66 4.67 -3.32 4.34 -4 4 C-2.35 4 -0.7 4 1 4 C0.67 2.68 0.34 1.36 0 0 Z " fill="#D6526D" transform="translate(351,402)"/>
<path d="M0 0 C0.66 0.33 1.32 0.66 2 1 C2.625 3.5625 2.625 3.5625 3 6 C2.01 6.33 1.02 6.66 0 7 C-0.38133299 5.0085944 -0.71325582 3.00720923 -1 1 C-0.67 0.67 -0.34 0.34 0 0 Z " fill="#D02448" transform="translate(346,405)"/>
<path d="M0 0 C2.475 0.495 2.475 0.495 5 1 C4.1875 2.9375 4.1875 2.9375 3 5 C2.01 5.33 1.02 5.66 0 6 C0 4.02 0 2.04 0 0 Z " fill="#B61593" transform="translate(263,314)"/>
<path d="M0 0 C1.98 0.66 3.96 1.32 6 2 C6 2.99 6 3.98 6 5 C4.35 4.67 2.7 4.34 1 4 C0.67 2.68 0.34 1.36 0 0 Z " fill="#921ACA" transform="translate(163,274)"/>
<path d="M0 0 C-0.99 1.32 -1.98 2.64 -3 4 C-4.65 2.68 -6.3 1.36 -8 0 C-4.71023192 -1.09658936 -3.28696233 -0.79953138 0 0 Z " fill="#A71BAB" transform="translate(257,274)"/>
<path d="M0 0 C4.43458973 1.3937282 6.87378374 3.60582235 10 7 C8.35 7 6.7 7 5 7 C4.67 6.01 4.34 5.02 4 4 C2.70644173 2.62804426 1.37701298 1.28817344 0 0 Z " fill="#C498E1" transform="translate(143,260)"/>
<path d="M0 0 C0.33 0.66 0.66 1.32 1 2 C-1.17508418 6.69360269 -1.17508418 6.69360269 -4.1875 7.8125 C-4.785625 7.874375 -5.38375 7.93625 -6 8 C-2.25 2.25 -2.25 2.25 0 0 Z " fill="#C490DC" transform="translate(203,231)"/>
<path d="M0 0 C0.33 0.66 0.66 1.32 1 2 C3.02463255 2.65213292 3.02463255 2.65213292 5 3 C4.67 3.66 4.34 4.32 4 5 C1.36 4.34 -1.28 3.68 -4 3 C-2.68 2.01 -1.36 1.02 0 0 Z " fill="#C360A2" transform="translate(193,431)"/>
<path d="M0 0 C3.82946843 1.45255699 5.12050295 3.42895561 7 7 C4.50638429 5.79618552 2.31856917 4.54571278 0 3 C0 2.01 0 1.02 0 0 Z " fill="#B769B0" transform="translate(153,409)"/>
<path d="M0 0 C0.33 0 0.66 0 1 0 C1 1.65 1 3.3 1 5 C-3.75 6.125 -3.75 6.125 -6 5 C-5.67 4.34 -5.34 3.68 -5 3 C-3.66666667 2.66666667 -2.33333333 2.33333333 -1 2 C-0.67 1.34 -0.34 0.68 0 0 Z " fill="#D71B46" transform="translate(374,374)"/>
<path d="M0 0 C0.66 0.33 1.32 0.66 2 1 C2 1.99 2 2.98 2 4 C0.02 4 -1.96 4 -4 4 C-4.33 3.34 -4.66 2.68 -5 2 C-2.625 0.9375 -2.625 0.9375 0 0 Z " fill="#BD1188" transform="translate(190,424)"/>
<path d="M0 0 C0.99 0 1.98 0 3 0 C2.67 2.31 2.34 4.62 2 7 C0.4375 5.75 0.4375 5.75 -1 4 C-0.6875 1.8125 -0.6875 1.8125 0 0 Z " fill="#961CC5" transform="translate(112,352)"/>
<path d="M0 0 C1.98 0.99 1.98 0.99 4 2 C3.67 3.98 3.34 5.96 3 8 C0.4345406 5.4345406 0.45953913 3.52313332 0 0 Z " fill="#8F1FCB" transform="translate(104,336)"/>
<path d="M0 0 C2.9719385 1.12451727 5.33440687 2.22293791 8 4 C7.67 4.66 7.34 5.32 7 6 C6.01 6.33 5.02 6.66 4 7 C3.896875 6.401875 3.79375 5.80375 3.6875 5.1875 C2.91123545 2.71756736 1.92911079 1.67748765 0 0 Z " fill="#7C26C1" transform="translate(140,260)"/>
<path d="M0 0 C3.26954202 0.56371414 4.82575883 1.49962266 7 4 C5.02 4 3.04 4 1 4 C0.67 2.68 0.34 1.36 0 0 Z " fill="#7928CF" transform="translate(256,112)"/>
<path d="M0 0 C0.66 0 1.32 0 2 0 C2.33 1.98 2.66 3.96 3 6 C0.525 5.01 0.525 5.01 -2 4 C-2 3.34 -2 2.68 -2 2 C-1.34 2 -0.68 2 0 2 C0 1.34 0 0.68 0 0 Z " fill="#7E23F2" transform="translate(244,99)"/>
<path d="M0 0 C0.66 0.99 1.32 1.98 2 3 C1.1025444 6.06630664 0.26961192 7.73038808 -2 10 C-2.22036864 6.14354879 -1.60355101 3.50776784 0 0 Z " fill="#D15C79" transform="translate(380,365)"/>
<path d="M0 0 C2.9375 0.8125 2.9375 0.8125 6 2 C6.33 2.99 6.66 3.98 7 5 C4.69 4.34 2.38 3.68 0 3 C0 2.01 0 1.02 0 0 Z " fill="#8127B5" transform="translate(155,269)"/>
<path d="M0 0 C6.52307692 -0.36923077 6.52307692 -0.36923077 8.9375 1.5 C9.288125 1.995 9.63875 2.49 10 3 C8 4 8 4 6.0546875 3.44140625 C5.33539063 3.15136719 4.61609375 2.86132812 3.875 2.5625 C3.15054688 2.27503906 2.42609375 1.98757813 1.6796875 1.69140625 C0.84824219 1.34916016 0.84824219 1.34916016 0 1 C0 0.67 0 0.34 0 0 Z " fill="#C382CA" transform="translate(230,268)"/>
<path d="M0 0 C2.29633824 3.44450737 2.54016485 5.93812283 3 10 C2.67 9.34 2.34 8.68 2 8 C1.34 8 0.68 8 0 8 C0 5.36 0 2.72 0 0 Z " fill="#D083AF" transform="translate(398,229)"/>
<path d="M0 0 C0.99 0.33 1.98 0.66 3 1 C3.6875 3.0625 3.6875 3.0625 4 5 C2.68 4.67 1.36 4.34 0 4 C0 2.68 0 1.36 0 0 Z " fill="#762BD4" transform="translate(247,101)"/>
</svg>
